<svg id="svg" version="1.1" xmlns="http://www.w3.org/2000/svg" xmlns:xlink="http://www.w3.org/1999/xlink" width="400" height="207.48299319727892" viewBox="0, 0, 400,207.48299319727892"><g id="svgg"><path id="path0" d="M50.895 0.148 C 50.632 0.199,50.365 0.373,50.302 0.535 C 50.240 0.697,50.055 0.830,49.890 0.830 C 49.571 0.830,48.573 1.804,48.573 2.116 C 48.573 2.218,48.339 2.536,48.054 2.821 C 47.769 3.107,47.535 3.453,47.535 3.592 C 47.535 3.731,47.357 3.956,47.139 4.092 C 46.920 4.228,46.680 4.624,46.603 4.972 C 46.527 5.320,46.378 5.605,46.273 5.605 C 46.168 5.605,46.082 5.745,46.082 5.916 C 46.082 6.087,45.999 6.227,45.898 6.227 C 45.796 6.227,45.652 6.554,45.577 6.954 C 45.502 7.353,45.351 7.680,45.242 7.680 C 45.133 7.680,45.044 7.914,45.044 8.199 C 45.044 8.485,44.964 8.718,44.865 8.718 C 44.767 8.718,44.731 8.952,44.786 9.237 C 44.844 9.540,44.788 9.756,44.653 9.756 C 44.526 9.756,44.421 9.990,44.421 10.275 C 44.421 10.560,44.329 10.794,44.216 10.794 C 44.103 10.794,43.951 11.168,43.878 11.624 C 43.805 12.081,43.664 12.455,43.565 12.455 C 43.465 12.455,43.383 12.595,43.383 12.766 C 43.383 12.937,43.302 13.077,43.202 13.077 C 43.103 13.077,42.962 13.451,42.889 13.908 C 42.816 14.364,42.664 14.738,42.551 14.738 C 42.438 14.738,42.346 14.971,42.346 15.257 C 42.346 15.542,42.260 15.776,42.156 15.776 C 42.052 15.776,41.904 16.149,41.827 16.606 C 41.750 17.063,41.601 17.436,41.497 17.436 C 41.393 17.436,41.308 17.618,41.308 17.839 C 41.308 18.061,41.225 18.293,41.124 18.356 C 41.022 18.419,40.878 18.798,40.803 19.199 C 40.728 19.599,40.589 19.927,40.495 19.927 C 40.400 19.927,40.263 20.301,40.190 20.758 C 40.117 21.214,39.965 21.588,39.852 21.588 C 39.739 21.588,39.647 21.821,39.647 22.107 C 39.647 22.392,39.558 22.626,39.449 22.626 C 39.340 22.626,39.186 22.976,39.108 23.404 C 39.029 23.832,38.908 24.229,38.839 24.286 C 38.563 24.514,38.215 25.313,38.081 26.025 C 38.004 26.439,37.857 26.777,37.756 26.777 C 37.654 26.777,37.571 27.011,37.571 27.296 C 37.571 27.582,37.479 27.815,37.366 27.815 C 37.253 27.815,37.101 28.189,37.028 28.646 C 36.955 29.102,36.815 29.476,36.717 29.476 C 36.619 29.476,36.479 29.850,36.406 30.306 C 36.333 30.763,36.191 31.136,36.092 31.136 C 35.992 31.136,35.911 31.277,35.911 31.448 C 35.911 31.619,35.823 31.759,35.716 31.759 C 35.609 31.759,35.458 32.179,35.381 32.691 C 35.304 33.204,35.159 33.572,35.057 33.509 C 34.956 33.447,34.873 33.588,34.873 33.823 C 34.873 34.058,34.791 34.250,34.692 34.250 C 34.592 34.250,34.451 34.624,34.378 35.080 C 34.305 35.537,34.153 35.911,34.040 35.911 C 33.927 35.911,33.835 36.144,33.835 36.430 C 33.835 36.715,33.746 36.949,33.637 36.949 C 33.528 36.949,33.374 37.299,33.295 37.727 C 33.217 38.155,33.096 38.552,33.027 38.609 C 32.751 38.837,32.403 39.636,32.269 40.348 C 32.192 40.762,32.053 41.100,31.962 41.100 C 31.871 41.100,31.733 41.474,31.655 41.930 C 31.578 42.387,31.430 42.761,31.326 42.761 C 31.222 42.761,31.136 42.994,31.136 43.280 C 31.136 43.565,31.044 43.799,30.931 43.799 C 30.819 43.799,30.666 44.172,30.593 44.629 C 30.520 45.086,30.379 45.459,30.280 45.459 C 30.180 45.459,30.099 45.599,30.099 45.771 C 30.099 45.942,30.017 46.082,29.918 46.082 C 29.818 46.082,29.677 46.456,29.604 46.912 C 29.531 47.369,29.379 47.743,29.266 47.743 C 29.153 47.743,29.061 47.976,29.061 48.262 C 29.061 48.547,28.976 48.780,28.871 48.780 C 28.767 48.780,28.619 49.154,28.542 49.611 C 28.465 50.067,28.322 50.441,28.225 50.441 C 28.128 50.441,27.985 50.861,27.908 51.375 C 27.831 51.889,27.685 52.309,27.584 52.309 C 27.483 52.309,27.400 52.449,27.400 52.621 C 27.400 52.792,27.319 52.932,27.219 52.932 C 27.119 52.932,26.978 53.306,26.905 53.762 C 26.832 54.219,26.680 54.593,26.567 54.593 C 26.455 54.593,26.362 54.733,26.362 54.904 C 26.362 55.075,26.279 55.215,26.178 55.215 C 26.077 55.215,25.931 55.636,25.854 56.149 C 25.777 56.663,25.626 57.084,25.519 57.084 C 25.412 57.084,25.324 57.317,25.324 57.602 C 25.324 57.888,25.232 58.121,25.119 58.121 C 25.006 58.121,24.854 58.495,24.781 58.952 C 24.708 59.408,24.568 59.782,24.470 59.782 C 24.372 59.782,24.232 60.156,24.159 60.612 C 24.086 61.069,23.944 61.443,23.845 61.443 C 23.745 61.443,23.664 61.583,23.664 61.754 C 23.664 61.925,23.582 62.065,23.483 62.065 C 23.383 62.065,23.242 62.439,23.169 62.896 C 23.096 63.352,22.944 63.726,22.831 63.726 C 22.718 63.726,22.626 63.960,22.626 64.245 C 22.626 64.530,22.543 64.764,22.441 64.764 C 22.340 64.764,22.193 65.102,22.116 65.516 C 21.982 66.228,21.634 67.027,21.358 67.255 C 21.289 67.312,21.168 67.709,21.090 68.137 C 21.011 68.565,20.869 68.915,20.775 68.915 C 20.680 68.915,20.543 69.289,20.470 69.746 C 20.397 70.202,20.245 70.576,20.132 70.576 C 20.020 70.576,19.927 70.810,19.927 71.095 C 19.927 71.380,19.835 71.614,19.722 71.614 C 19.609 71.614,19.457 71.988,19.384 72.444 C 19.311 72.901,19.170 73.275,19.071 73.275 C 18.971 73.275,18.889 73.461,18.889 73.690 C 18.889 73.918,18.804 74.105,18.700 74.105 C 18.596 74.105,18.448 74.478,18.371 74.935 C 18.293 75.392,18.145 75.765,18.041 75.765 C 17.937 75.765,17.852 75.999,17.852 76.284 C 17.852 76.570,17.766 76.803,17.660 76.803 C 17.555 76.803,17.408 77.084,17.333 77.426 C 17.257 77.769,17.110 78.049,17.005 78.049 C 16.900 78.049,16.814 78.282,16.814 78.568 C 16.814 78.853,16.710 79.087,16.584 79.087 C 16.458 79.087,16.408 79.227,16.474 79.398 C 16.539 79.569,16.503 79.709,16.392 79.709 C 16.281 79.709,16.191 79.943,16.191 80.228 C 16.191 80.514,16.103 80.747,15.996 80.747 C 15.889 80.747,15.738 81.168,15.661 81.681 C 15.584 82.195,15.438 82.615,15.337 82.615 C 15.236 82.615,15.153 82.756,15.153 82.927 C 15.153 83.098,15.072 83.238,14.972 83.238 C 14.872 83.238,14.731 83.612,14.658 84.069 C 14.585 84.525,14.433 84.899,14.320 84.899 C 14.208 84.899,14.115 85.132,14.115 85.418 C 14.115 85.703,14.026 85.937,13.917 85.937 C 13.808 85.937,13.654 86.287,13.576 86.715 C 13.497 87.143,13.376 87.540,13.307 87.597 C 13.031 87.825,12.683 88.624,12.549 89.336 C 12.472 89.750,12.337 90.088,12.250 90.088 C 12.164 90.088,12.033 90.462,11.960 90.919 C 11.887 91.375,11.735 91.749,11.622 91.749 C 11.509 91.749,11.417 91.982,11.417 92.268 C 11.417 92.553,11.324 92.787,11.212 92.787 C 11.099 92.787,10.947 93.160,10.874 93.617 C 10.801 94.074,10.659 94.447,10.560 94.447 C 10.460 94.447,10.379 94.587,10.379 94.759 C 10.379 94.930,10.297 95.070,10.198 95.070 C 10.098 95.070,9.957 95.444,9.884 95.900 C 9.811 96.357,9.659 96.731,9.546 96.731 C 9.433 96.731,9.341 96.964,9.341 97.250 C 9.341 97.535,9.253 97.769,9.146 97.769 C 9.039 97.769,8.888 98.189,8.811 98.703 C 8.734 99.216,8.589 99.637,8.490 99.637 C 8.390 99.637,8.248 100.010,8.175 100.467 C 8.102 100.924,7.961 101.297,7.861 101.297 C 7.762 101.297,7.680 101.437,7.680 101.609 C 7.680 101.780,7.588 101.920,7.475 101.920 C 7.362 101.920,7.210 102.294,7.137 102.750 C 7.064 103.207,6.923 103.581,6.823 103.581 C 6.724 103.581,6.642 103.773,6.642 104.008 C 6.642 104.243,6.560 104.384,6.458 104.322 C 6.357 104.259,6.211 104.627,6.134 105.140 C 6.057 105.652,5.907 106.072,5.799 106.072 C 5.692 106.072,5.605 106.305,5.605 106.591 C 5.605 106.876,5.512 107.109,5.399 107.109 C 5.287 107.109,5.135 107.483,5.062 107.940 C 4.989 108.396,4.847 108.770,4.748 108.770 C 4.648 108.770,4.567 108.910,4.567 109.081 C 4.567 109.253,4.485 109.393,4.386 109.393 C 4.286 109.393,4.145 109.766,4.072 110.223 C 3.999 110.680,3.859 111.053,3.760 111.053 C 3.662 111.053,3.522 111.427,3.449 111.884 C 3.376 112.340,3.224 112.714,3.111 112.714 C 2.998 112.714,2.906 112.948,2.906 113.233 C 2.906 113.518,2.818 113.752,2.711 113.752 C 2.604 113.752,2.453 114.172,2.376 114.686 C 2.299 115.200,2.153 115.620,2.052 115.620 C 1.951 115.620,1.868 115.760,1.868 115.931 C 1.868 116.103,1.787 116.243,1.687 116.243 C 1.588 116.243,1.446 116.617,1.373 117.073 C 1.300 117.530,1.148 117.903,1.035 117.903 C 0.923 117.903,0.830 118.137,0.830 118.422 C 0.830 118.708,0.744 118.941,0.637 118.941 C -0.097 118.941,-0.257 127.429,0.468 127.959 C 0.667 128.105,0.830 128.331,0.830 128.461 C 0.830 128.591,0.917 128.697,1.024 128.697 C 1.130 128.697,1.277 128.884,1.349 129.112 C 1.421 129.340,1.708 129.584,1.986 129.654 C 2.264 129.723,2.491 129.864,2.491 129.965 C 2.491 130.067,2.670 130.150,2.889 130.150 C 3.108 130.150,3.326 130.267,3.374 130.410 C 3.497 130.777,8.753 130.774,8.875 130.407 C 8.922 130.266,9.139 130.150,9.358 130.150 C 9.577 130.150,9.756 130.065,9.756 129.959 C 9.756 129.854,10.036 129.707,10.379 129.632 C 10.721 129.556,11.002 129.409,11.002 129.304 C 11.002 129.199,11.188 129.113,11.417 129.113 C 11.645 129.113,11.832 129.027,11.832 128.922 C 11.832 128.816,12.112 128.669,12.455 128.594 C 12.797 128.518,13.077 128.372,13.077 128.268 C 13.077 128.165,13.451 128.020,13.908 127.947 C 14.364 127.874,14.738 127.733,14.738 127.633 C 14.738 127.533,14.925 127.452,15.153 127.452 C 15.381 127.452,15.568 127.366,15.568 127.261 C 15.568 127.156,15.848 127.008,16.191 126.933 C 16.533 126.858,16.814 126.710,16.814 126.605 C 16.814 126.500,16.954 126.414,17.125 126.414 C 17.296 126.414,17.436 126.326,17.436 126.219 C 17.436 126.112,17.857 125.961,18.371 125.884 C 18.884 125.807,19.305 125.661,19.305 125.560 C 19.305 125.459,19.445 125.376,19.616 125.376 C 19.787 125.376,19.927 125.290,19.927 125.185 C 19.927 125.080,20.208 124.933,20.550 124.857 C 20.893 124.782,21.173 124.640,21.173 124.542 C 21.173 124.444,21.593 124.301,22.107 124.224 C 22.621 124.147,23.041 124.001,23.041 123.900 C 23.041 123.798,23.181 123.716,23.352 123.716 C 23.524 123.716,23.664 123.630,23.664 123.525 C 23.664 123.419,23.944 123.272,24.286 123.197 C 24.629 123.121,24.909 122.974,24.909 122.869 C 24.909 122.764,25.096 122.678,25.324 122.678 C 25.553 122.678,25.739 122.585,25.739 122.473 C 25.739 122.360,26.113 122.208,26.570 122.135 C 27.026 122.062,27.400 121.920,27.400 121.821 C 27.400 121.721,27.540 121.640,27.711 121.640 C 27.883 121.640,28.023 121.551,28.023 121.442 C 28.023 121.333,28.350 121.182,28.749 121.107 C 29.149 121.032,29.476 120.895,29.476 120.803 C 29.476 120.711,29.756 120.573,30.099 120.498 C 30.441 120.423,30.721 120.275,30.721 120.170 C 30.721 120.065,30.955 119.979,31.240 119.979 C 31.526 119.979,31.759 119.886,31.759 119.772 C 31.759 119.657,31.899 119.564,32.071 119.564 C 32.264 119.564,32.382 119.368,32.382 119.045 C 32.382 118.665,32.271 118.526,31.967 118.526 C 31.738 118.526,31.552 118.620,31.552 118.734 C 31.552 118.848,31.092 118.941,30.531 118.941 C 29.923 118.941,29.477 119.042,29.428 119.190 C 29.306 119.556,20.309 119.567,20.187 119.201 C 20.139 119.058,19.921 118.941,19.702 118.941 C 19.484 118.941,19.305 118.854,19.305 118.748 C 19.305 118.641,19.118 118.495,18.890 118.423 C 18.662 118.350,18.418 118.064,18.349 117.786 C 18.279 117.508,18.138 117.281,18.037 117.281 C 17.935 117.281,17.852 117.094,17.852 116.866 C 17.852 116.637,17.944 116.450,18.057 116.450 C 18.170 116.450,18.322 116.077,18.395 115.620 C 18.468 115.163,18.609 114.790,18.708 114.790 C 18.808 114.790,18.889 114.650,18.889 114.478 C 18.889 114.307,18.971 114.167,19.071 114.167 C 19.170 114.167,19.311 113.793,19.384 113.337 C 19.457 112.880,19.597 112.506,19.696 112.506 C 19.794 112.506,19.934 112.133,20.007 111.676 C 20.080 111.220,20.232 110.846,20.345 110.846 C 20.458 110.846,20.550 110.612,20.550 110.327 C 20.550 110.042,20.638 109.808,20.745 109.808 C 20.852 109.808,21.003 109.388,21.080 108.874 C 21.157 108.360,21.303 107.940,21.404 107.940 C 21.505 107.940,21.588 107.800,21.588 107.628 C 21.588 107.457,21.669 107.317,21.769 107.317 C 21.869 107.317,22.010 106.943,22.083 106.487 C 22.156 106.030,22.308 105.656,22.421 105.656 C 22.534 105.656,22.626 105.423,22.626 105.138 C 22.626 104.852,22.718 104.619,22.831 104.619 C 22.944 104.619,23.096 104.245,23.169 103.788 C 23.242 103.332,23.383 102.958,23.483 102.958 C 23.582 102.958,23.664 102.818,23.664 102.647 C 23.664 102.475,23.747 102.335,23.848 102.335 C 23.949 102.335,24.095 101.915,24.172 101.401 C 24.249 100.887,24.391 100.467,24.489 100.467 C 24.586 100.467,24.728 100.093,24.805 99.637 C 24.883 99.180,25.031 98.806,25.135 98.806 C 25.239 98.806,25.324 98.573,25.324 98.287 C 25.324 98.002,25.417 97.769,25.529 97.769 C 25.642 97.769,25.794 97.395,25.867 96.938 C 25.940 96.482,26.082 96.108,26.181 96.108 C 26.281 96.108,26.362 95.968,26.362 95.797 C 26.362 95.625,26.444 95.485,26.543 95.485 C 26.643 95.485,26.784 95.112,26.857 94.655 C 26.930 94.198,27.082 93.825,27.195 93.825 C 27.308 93.825,27.400 93.591,27.400 93.306 C 27.400 93.020,27.485 92.787,27.589 92.787 C 27.694 92.787,27.842 92.413,27.919 91.956 C 27.996 91.500,28.139 91.126,28.236 91.126 C 28.333 91.126,28.476 90.706,28.553 90.192 C 28.630 89.678,28.776 89.258,28.877 89.258 C 28.978 89.258,29.061 89.118,29.061 88.947 C 29.061 88.775,29.153 88.635,29.266 88.635 C 29.379 88.635,29.531 88.262,29.604 87.805 C 29.677 87.348,29.818 86.975,29.918 86.975 C 30.017 86.975,30.099 86.834,30.099 86.663 C 30.099 86.492,30.181 86.352,30.283 86.352 C 30.384 86.352,30.530 85.931,30.607 85.418 C 30.684 84.904,30.834 84.484,30.942 84.484 C 31.049 84.484,31.136 84.250,31.136 83.965 C 31.136 83.679,31.229 83.446,31.342 83.446 C 31.454 83.446,31.606 83.072,31.679 82.615 C 31.753 82.159,31.893 81.785,31.991 81.785 C 32.089 81.785,32.229 81.412,32.302 80.955 C 32.375 80.498,32.516 80.125,32.616 80.125 C 32.716 80.125,32.797 79.984,32.797 79.813 C 32.797 79.642,32.879 79.502,32.978 79.502 C 33.078 79.502,33.219 79.128,33.292 78.672 C 33.365 78.215,33.517 77.841,33.630 77.841 C 33.743 77.841,33.835 77.608,33.835 77.322 C 33.835 77.037,33.923 76.803,34.030 76.803 C 34.137 76.803,34.288 76.383,34.365 75.869 C 34.442 75.355,34.588 74.935,34.689 74.935 C 34.790 74.935,34.873 74.795,34.873 74.624 C 34.873 74.453,34.954 74.312,35.054 74.312 C 35.153 74.312,35.295 73.939,35.368 73.482 C 35.441 73.025,35.593 72.652,35.706 72.652 C 35.818 72.652,35.911 72.418,35.911 72.133 C 35.911 71.847,36.003 71.614,36.116 71.614 C 36.229 71.614,36.381 71.240,36.454 70.784 C 36.527 70.327,36.667 69.953,36.765 69.953 C 36.863 69.953,37.003 69.580,37.076 69.123 C 37.150 68.666,37.291 68.293,37.390 68.293 C 37.490 68.293,37.571 68.106,37.571 67.878 C 37.571 67.649,37.653 67.462,37.752 67.462 C 37.852 67.462,37.993 67.089,38.066 66.632 C 38.139 66.175,38.291 65.802,38.404 65.802 C 38.517 65.802,38.609 65.568,38.609 65.283 C 38.609 64.997,38.702 64.764,38.814 64.764 C 38.927 64.764,39.079 64.390,39.152 63.934 C 39.225 63.477,39.366 63.103,39.466 63.103 C 39.566 63.103,39.647 62.963,39.647 62.792 C 39.647 62.621,39.729 62.481,39.828 62.481 C 39.928 62.481,40.069 62.107,40.142 61.650 C 40.215 61.194,40.356 60.820,40.456 60.820 C 40.556 60.820,40.701 60.400,40.778 59.886 C 40.855 59.372,41.006 58.952,41.113 58.952 C 41.220 58.952,41.308 58.812,41.308 58.640 C 41.308 58.469,41.389 58.329,41.489 58.329 C 41.588 58.329,41.730 57.955,41.803 57.499 C 41.876 57.042,42.028 56.668,42.140 56.668 C 42.253 56.668,42.346 56.435,42.346 56.149 C 42.346 55.864,42.435 55.631,42.544 55.631 C 42.653 55.631,42.806 55.280,42.885 54.852 C 42.964 54.424,43.085 54.027,43.154 53.970 C 43.430 53.742,43.778 52.944,43.911 52.231 C 43.989 51.817,44.124 51.479,44.210 51.479 C 44.297 51.479,44.428 51.105,44.501 50.649 C 44.574 50.192,44.726 49.818,44.839 49.818 C 44.952 49.818,45.044 49.585,45.044 49.299 C 45.044 49.014,45.136 48.780,45.249 48.780 C 45.362 48.780,45.514 48.407,45.587 47.950 C 45.660 47.494,45.801 47.120,45.901 47.120 C 46.001 47.120,46.082 46.980,46.082 46.809 C 46.082 46.637,46.163 46.497,46.263 46.497 C 46.363 46.497,46.504 46.124,46.577 45.667 C 46.650 45.210,46.802 44.837,46.915 44.837 C 47.028 44.837,47.120 44.603,47.120 44.318 C 47.120 44.032,47.208 43.799,47.315 43.799 C 47.422 43.799,47.573 43.378,47.650 42.865 C 47.727 42.351,47.873 41.930,47.974 41.930 C 48.075 41.930,48.158 41.790,48.158 41.619 C 48.158 41.448,48.239 41.308,48.339 41.308 C 48.438 41.308,48.580 40.934,48.653 40.477 C 48.726 40.021,48.866 39.647,48.964 39.647 C 49.062 39.647,49.202 39.273,49.275 38.817 C 49.348 38.360,49.500 37.987,49.613 37.987 C 49.726 37.987,49.818 37.753,49.818 37.468 C 49.818 37.182,49.911 36.949,50.023 36.949 C 50.136 36.949,50.288 36.575,50.361 36.118 C 50.434 35.662,50.576 35.288,50.675 35.288 C 50.775 35.288,50.856 35.101,50.856 34.873 C 50.856 34.645,50.940 34.458,51.041 34.458 C 51.143 34.458,51.285 34.224,51.357 33.939 C 51.428 33.653,51.579 33.420,51.691 33.420 C 51.803 33.420,51.894 33.319,51.894 33.196 C 51.894 32.485,53.217 31.656,54.308 31.682 C 55.430 31.709,56.876 32.763,56.876 33.553 C 56.876 33.708,56.969 33.835,57.084 33.835 C 57.198 33.835,57.291 33.975,57.291 34.146 C 57.291 34.318,57.379 34.458,57.486 34.458 C 57.593 34.458,57.744 34.878,57.821 35.392 C 57.898 35.906,58.044 36.326,58.145 36.326 C 58.246 36.326,58.329 36.466,58.329 36.637 C 58.329 36.809,58.415 36.949,58.520 36.949 C 58.625 36.949,58.773 37.229,58.848 37.571 C 58.923 37.914,59.071 38.194,59.176 38.194 C 59.281 38.194,59.367 38.428,59.367 38.713 C 59.367 38.998,59.450 39.232,59.551 39.232 C 59.653 39.232,59.797 39.559,59.872 39.958 C 59.947 40.358,60.090 40.685,60.190 40.685 C 60.290 40.685,60.433 40.965,60.509 41.308 C 60.584 41.650,60.731 41.930,60.836 41.930 C 60.942 41.930,61.028 42.117,61.028 42.346 C 61.028 42.574,61.121 42.761,61.235 42.761 C 61.349 42.761,61.443 42.957,61.443 43.196 C 61.443 43.637,62.046 44.885,62.318 45.007 C 62.400 45.044,62.527 45.394,62.601 45.786 C 62.674 46.177,62.817 46.497,62.919 46.497 C 63.020 46.497,63.103 46.731,63.103 47.016 C 63.103 47.302,63.189 47.535,63.294 47.535 C 63.399 47.535,63.547 47.815,63.622 48.158 C 63.697 48.500,63.845 48.780,63.950 48.780 C 64.055 48.780,64.141 48.967,64.141 49.196 C 64.141 49.424,64.233 49.611,64.346 49.611 C 64.459 49.611,64.611 49.984,64.684 50.441 C 64.757 50.898,64.891 51.271,64.981 51.271 C 65.072 51.271,65.208 51.552,65.283 51.894 C 65.358 52.237,65.506 52.517,65.611 52.517 C 65.716 52.517,65.802 52.704,65.802 52.932 C 65.802 53.160,65.894 53.347,66.007 53.347 C 66.120 53.347,66.272 53.721,66.345 54.177 C 66.418 54.634,66.559 55.008,66.659 55.008 C 66.758 55.008,66.840 55.148,66.840 55.319 C 66.840 55.490,66.929 55.631,67.038 55.631 C 67.147 55.631,67.297 55.957,67.372 56.357 C 67.447 56.757,67.592 57.084,67.693 57.084 C 67.795 57.084,67.878 57.224,67.878 57.395 C 67.878 57.566,67.970 57.706,68.083 57.706 C 68.195 57.706,68.348 58.080,68.421 58.537 C 68.494 58.993,68.631 59.367,68.725 59.367 C 68.819 59.367,68.958 59.694,69.033 60.093 C 69.108 60.493,69.252 60.820,69.354 60.820 C 69.455 60.820,69.538 60.960,69.538 61.131 C 69.538 61.303,69.630 61.443,69.743 61.443 C 69.856 61.443,70.008 61.816,70.081 62.273 C 70.154 62.730,70.295 63.103,70.395 63.103 C 70.495 63.103,70.576 63.243,70.576 63.415 C 70.576 63.586,70.659 63.726,70.761 63.726 C 70.862 63.726,71.006 64.053,71.081 64.453 C 71.156 64.852,71.307 65.179,71.416 65.179 C 71.525 65.179,71.614 65.319,71.614 65.490 C 71.614 65.662,71.695 65.802,71.795 65.802 C 71.895 65.802,72.036 66.175,72.109 66.632 C 72.182 67.089,72.323 67.462,72.424 67.462 C 72.524 67.462,72.667 67.789,72.742 68.189 C 72.817 68.588,72.967 68.915,73.076 68.915 C 73.185 68.915,73.275 69.056,73.275 69.227 C 73.275 69.398,73.356 69.538,73.456 69.538 C 73.555 69.538,73.696 69.912,73.769 70.368 C 73.842 70.825,73.994 71.199,74.107 71.199 C 74.220 71.199,74.312 71.386,74.312 71.614 C 74.312 71.842,74.398 72.029,74.503 72.029 C 74.609 72.029,74.756 72.309,74.831 72.652 C 74.907 72.994,75.054 73.275,75.159 73.275 C 75.264 73.275,75.350 73.461,75.350 73.690 C 75.350 73.918,75.435 74.105,75.540 74.105 C 75.644 74.105,75.792 74.478,75.869 74.935 C 75.946 75.392,76.095 75.765,76.199 75.765 C 76.303 75.765,76.388 75.906,76.388 76.077 C 76.388 76.248,76.477 76.388,76.586 76.388 C 76.695 76.388,76.846 76.715,76.921 77.115 C 76.996 77.514,77.128 77.841,77.215 77.841 C 77.302 77.841,77.433 78.215,77.506 78.672 C 77.579 79.128,77.731 79.502,77.844 79.502 C 77.956 79.502,78.049 79.642,78.049 79.813 C 78.049 79.984,78.138 80.125,78.247 80.125 C 78.356 80.125,78.506 80.451,78.581 80.851 C 78.656 81.251,78.801 81.578,78.902 81.578 C 79.004 81.578,79.087 81.811,79.087 82.097 C 79.087 82.382,79.173 82.615,79.278 82.615 C 79.383 82.615,79.530 82.896,79.606 83.238 C 79.681 83.581,79.828 83.861,79.933 83.861 C 80.039 83.861,80.125 84.001,80.125 84.172 C 80.125 84.344,80.212 84.484,80.319 84.484 C 80.427 84.484,80.577 84.904,80.654 85.418 C 80.731 85.931,80.870 86.352,80.962 86.352 C 81.054 86.352,81.191 86.632,81.266 86.975 C 81.341 87.317,81.489 87.597,81.594 87.597 C 81.699 87.597,81.785 87.737,81.785 87.909 C 81.785 88.080,81.868 88.220,81.970 88.220 C 82.071 88.220,82.215 88.547,82.290 88.947 C 82.365 89.346,82.516 89.673,82.625 89.673 C 82.734 89.673,82.823 89.907,82.823 90.192 C 82.823 90.477,82.909 90.711,83.014 90.711 C 83.119 90.711,83.267 90.991,83.342 91.334 C 83.417 91.676,83.565 91.956,83.670 91.956 C 83.775 91.956,83.861 92.143,83.861 92.372 C 83.861 92.600,83.953 92.787,84.066 92.787 C 84.179 92.787,84.331 93.160,84.404 93.617 C 84.477 94.074,84.618 94.447,84.718 94.447 C 84.817 94.447,84.899 94.587,84.899 94.759 C 84.899 94.930,85.002 95.070,85.129 95.070 C 85.255 95.070,85.305 95.210,85.239 95.381 C 85.173 95.553,85.210 95.693,85.320 95.693 C 85.431 95.693,85.522 95.880,85.522 96.108 C 85.522 96.336,85.614 96.523,85.727 96.523 C 85.839 96.523,85.992 96.897,86.065 97.353 C 86.138 97.810,86.279 98.184,86.378 98.184 C 86.478 98.184,86.559 98.324,86.559 98.495 C 86.559 98.666,86.642 98.806,86.744 98.806 C 86.845 98.806,86.990 99.133,87.065 99.533 C 87.140 99.933,87.290 100.259,87.399 100.259 C 87.508 100.259,87.597 100.400,87.597 100.571 C 87.597 100.742,87.679 100.882,87.778 100.882 C 87.878 100.882,88.019 101.256,88.092 101.713 C 88.165 102.169,88.309 102.543,88.412 102.543 C 88.515 102.543,88.662 102.916,88.739 103.373 C 88.816 103.830,88.964 104.203,89.069 104.203 C 89.173 104.203,89.258 104.390,89.258 104.619 C 89.258 104.847,89.351 105.034,89.465 105.034 C 89.580 105.034,89.673 105.229,89.673 105.469 C 89.673 105.868,90.228 107.072,90.525 107.317 C 90.594 107.374,90.715 107.771,90.794 108.199 C 90.873 108.627,91.027 108.978,91.136 108.978 C 91.245 108.978,91.334 109.211,91.334 109.497 C 91.334 109.782,91.421 110.016,91.529 110.016 C 91.636 110.016,91.786 110.436,91.863 110.950 C 91.941 111.463,92.086 111.884,92.188 111.884 C 92.289 111.884,92.372 112.071,92.372 112.299 C 92.372 112.527,92.465 112.714,92.579 112.714 C 92.694 112.714,92.787 113.268,92.787 113.960 C 92.787 114.651,92.694 115.205,92.579 115.205 C 92.465 115.205,92.372 115.345,92.372 115.516 C 92.372 115.688,92.278 115.828,92.164 115.828 C 92.050 115.828,91.956 115.954,91.956 116.107 C 91.956 116.591,91.208 117.275,90.531 117.410 C 90.173 117.482,89.881 117.622,89.881 117.722 C 89.881 117.822,89.600 117.903,89.258 117.903 C 88.915 117.903,88.635 117.997,88.635 118.111 C 88.635 118.225,88.168 118.319,87.597 118.319 C 87.026 118.319,86.559 118.225,86.559 118.111 C 86.559 117.997,86.053 117.903,85.435 117.903 C 84.720 117.903,84.279 117.809,84.224 117.644 C 84.098 117.265,64.735 117.265,64.608 117.644 C 64.552 117.813,64.092 117.903,63.294 117.903 C 62.618 117.903,62.065 117.985,62.065 118.084 C 62.065 118.184,61.414 118.329,60.617 118.408 C 59.821 118.486,59.114 118.638,59.048 118.746 C 58.982 118.853,58.653 118.941,58.317 118.941 C 57.981 118.941,57.706 119.023,57.706 119.122 C 57.706 119.222,57.146 119.366,56.461 119.444 C 55.776 119.521,55.215 119.673,55.215 119.782 C 55.215 119.890,54.982 119.979,54.696 119.979 C 54.411 119.979,54.177 120.072,54.177 120.184 C 54.177 120.297,53.804 120.449,53.347 120.522 C 52.891 120.595,52.517 120.729,52.517 120.820 C 52.517 120.910,52.237 121.046,51.894 121.121 C 51.552 121.196,51.271 121.344,51.271 121.449 C 51.271 121.554,51.085 121.640,50.856 121.640 C 50.628 121.640,50.441 121.726,50.441 121.831 C 50.441 121.936,50.161 122.084,49.818 122.159 C 49.476 122.234,49.196 122.382,49.196 122.487 C 49.196 122.592,49.056 122.678,48.884 122.678 C 48.713 122.678,48.573 122.771,48.573 122.885 C 48.573 122.999,48.383 123.093,48.151 123.093 C 47.919 123.093,47.676 123.233,47.610 123.404 C 47.544 123.576,47.324 123.716,47.120 123.716 C 46.916 123.716,46.695 123.856,46.630 124.027 C 46.564 124.198,46.363 124.338,46.182 124.338 C 46.002 124.338,45.638 124.572,45.374 124.857 C 45.109 125.143,44.831 125.376,44.757 125.376 C 44.512 125.376,40.685 129.248,40.685 129.495 C 40.685 129.627,40.593 129.735,40.481 129.735 C 40.369 129.735,40.219 129.969,40.148 130.254 C 40.076 130.540,39.934 130.773,39.832 130.773 C 39.730 130.773,39.647 130.960,39.647 131.188 C 39.647 131.417,39.561 131.604,39.456 131.604 C 39.351 131.604,39.203 131.884,39.128 132.226 C 39.053 132.569,38.905 132.849,38.800 132.849 C 38.695 132.849,38.609 133.083,38.609 133.368 C 38.609 133.653,38.520 133.887,38.412 133.887 C 38.303 133.887,38.151 134.447,38.074 135.132 C 37.996 135.817,37.852 136.378,37.752 136.378 C 37.653 136.378,37.571 136.798,37.571 137.312 C 37.571 137.826,37.478 138.246,37.364 138.246 C 37.241 138.246,37.156 139.007,37.156 140.114 C 37.156 141.221,37.241 141.982,37.364 141.982 C 37.479 141.982,37.571 142.536,37.571 143.228 C 37.571 143.913,37.656 144.473,37.759 144.473 C 37.863 144.473,38.012 144.940,38.090 145.511 C 38.169 146.082,38.318 146.549,38.421 146.549 C 38.525 146.549,38.609 146.783,38.609 147.068 C 38.609 147.353,38.695 147.587,38.800 147.587 C 38.905 147.587,39.053 147.867,39.128 148.210 C 39.203 148.552,39.351 148.832,39.456 148.832 C 39.561 148.832,39.647 148.972,39.647 149.144 C 39.647 149.315,39.741 149.455,39.855 149.455 C 39.969 149.455,40.062 149.645,40.062 149.877 C 40.062 150.109,40.202 150.352,40.374 150.418 C 40.545 150.484,40.685 150.704,40.685 150.908 C 40.685 151.112,40.825 151.333,40.996 151.398 C 41.168 151.464,41.308 151.663,41.308 151.839 C 41.308 152.016,41.635 152.478,42.034 152.866 C 42.434 153.255,42.761 153.635,42.761 153.712 C 42.761 153.897,45.577 156.720,45.762 156.720 C 45.842 156.720,46.176 156.977,46.506 157.291 C 47.366 158.109,47.706 158.381,47.866 158.381 C 47.943 158.381,48.223 158.614,48.487 158.900 C 48.752 159.185,49.026 159.419,49.097 159.419 C 49.167 159.419,49.355 159.536,49.515 159.678 C 50.202 160.294,50.436 160.457,50.640 160.457 C 50.759 160.457,50.856 160.544,50.856 160.650 C 50.856 160.757,51.066 160.910,51.323 160.991 C 51.580 161.072,51.930 161.295,52.102 161.487 C 52.273 161.678,52.577 161.895,52.776 161.969 C 52.976 162.044,53.140 162.189,53.140 162.292 C 53.140 162.396,53.432 162.539,53.790 162.611 C 54.148 162.682,54.592 162.914,54.776 163.126 C 54.961 163.338,55.345 163.584,55.631 163.672 C 55.916 163.761,56.196 163.896,56.253 163.972 C 56.310 164.049,56.707 164.274,57.135 164.473 C 57.564 164.672,57.914 164.924,57.914 165.033 C 57.914 165.142,58.101 165.231,58.329 165.231 C 58.557 165.231,58.744 165.317,58.744 165.422 C 58.744 165.527,59.024 165.675,59.367 165.750 C 59.709 165.825,59.990 165.968,59.990 166.068 C 59.990 166.168,60.313 166.311,60.709 166.385 C 61.133 166.465,61.476 166.671,61.546 166.889 C 61.610 167.091,61.952 167.315,62.307 167.386 C 62.661 167.457,63.108 167.695,63.299 167.916 C 63.490 168.136,63.880 168.375,64.165 168.447 C 64.451 168.519,64.855 168.805,65.064 169.084 C 65.274 169.362,65.573 169.590,65.731 169.590 C 65.888 169.590,66.322 169.904,66.695 170.288 C 67.068 170.672,67.580 171.052,67.833 171.133 C 68.086 171.213,68.293 171.360,68.293 171.460 C 68.293 171.696,71.584 174.987,71.820 174.987 C 71.920 174.987,72.066 175.190,72.145 175.439 C 72.223 175.687,72.510 176.130,72.781 176.423 C 73.053 176.715,73.275 177.030,73.275 177.122 C 73.275 177.215,73.508 177.507,73.793 177.771 C 74.079 178.036,74.312 178.358,74.312 178.488 C 74.312 178.617,74.404 178.723,74.516 178.723 C 74.628 178.723,74.778 178.957,74.850 179.242 C 74.922 179.528,75.063 179.761,75.165 179.761 C 75.267 179.761,75.350 179.938,75.350 180.154 C 75.350 180.370,75.490 180.601,75.662 180.667 C 75.833 180.732,75.973 180.976,75.973 181.208 C 75.973 181.440,76.066 181.629,76.181 181.629 C 76.295 181.629,76.388 181.770,76.388 181.941 C 76.388 182.112,76.474 182.252,76.579 182.252 C 76.684 182.252,76.832 182.532,76.907 182.875 C 76.982 183.217,77.119 183.498,77.211 183.498 C 77.304 183.498,77.442 183.918,77.519 184.432 C 77.596 184.946,77.747 185.366,77.854 185.366 C 77.961 185.366,78.049 185.599,78.049 185.885 C 78.049 186.170,78.137 186.404,78.244 186.404 C 78.351 186.404,78.503 187.058,78.582 187.857 C 78.661 188.656,78.806 189.310,78.906 189.310 C 79.005 189.310,79.087 190.477,79.087 191.905 C 79.087 193.332,79.004 194.499,78.903 194.499 C 78.802 194.499,78.655 195.106,78.575 195.848 C 78.496 196.591,78.345 197.198,78.240 197.198 C 78.135 197.198,78.049 197.338,78.049 197.509 C 78.049 197.680,77.966 197.820,77.864 197.820 C 77.763 197.820,77.618 198.147,77.544 198.547 C 77.469 198.947,77.328 199.273,77.232 199.273 C 77.135 199.273,76.999 199.501,76.929 199.779 C 76.859 200.056,76.616 200.343,76.388 200.415 C 76.160 200.488,75.973 200.691,75.973 200.867 C 75.973 201.209,73.832 203.425,73.501 203.425 C 73.393 203.425,73.176 203.542,73.020 203.684 C 72.556 204.109,71.401 204.670,70.992 204.670 C 70.782 204.670,70.572 204.787,70.524 204.930 C 70.399 205.306,60.582 205.306,60.457 204.930 C 60.409 204.787,60.238 204.670,60.076 204.670 C 59.914 204.670,59.782 204.577,59.782 204.463 C 59.782 204.349,59.595 204.255,59.367 204.255 C 59.062 204.255,58.952 204.394,58.952 204.774 C 58.952 205.155,59.062 205.293,59.367 205.293 C 59.595 205.293,59.782 205.387,59.782 205.501 C 59.782 205.615,59.922 205.708,60.093 205.708 C 60.265 205.708,60.405 205.790,60.405 205.889 C 60.405 205.989,60.778 206.130,61.235 206.203 C 61.692 206.276,62.065 206.428,62.065 206.541 C 62.065 206.654,62.299 206.746,62.584 206.746 C 62.870 206.746,63.103 206.826,63.103 206.925 C 63.103 207.716,74.812 207.724,75.651 206.932 C 75.760 206.830,76.063 206.746,76.326 206.746 C 76.588 206.746,76.803 206.659,76.803 206.551 C 76.803 206.444,77.224 206.293,77.737 206.216 C 78.251 206.139,78.672 205.994,78.672 205.892 C 78.672 205.791,78.858 205.708,79.087 205.708 C 79.315 205.708,79.502 205.622,79.502 205.517 C 79.502 205.412,79.782 205.265,80.125 205.189 C 80.467 205.114,80.747 204.967,80.747 204.862 C 80.747 204.756,80.887 204.670,81.059 204.670 C 81.230 204.670,81.370 204.577,81.370 204.463 C 81.370 204.349,81.560 204.255,81.792 204.255 C 82.024 204.255,82.267 204.115,82.333 203.944 C 82.399 203.773,82.632 203.633,82.852 203.633 C 83.071 203.633,83.305 203.492,83.371 203.321 C 83.436 203.150,83.667 203.010,83.883 203.010 C 84.099 203.010,84.276 202.914,84.276 202.796 C 84.276 202.678,84.439 202.519,84.639 202.442 C 84.838 202.366,85.216 202.089,85.479 201.826 C 85.741 201.564,86.044 201.349,86.153 201.349 C 86.422 201.349,89.881 197.841,89.881 197.568 C 89.881 197.448,90.054 197.199,90.266 197.014 C 90.478 196.830,90.718 196.469,90.799 196.212 C 90.880 195.955,91.034 195.745,91.140 195.745 C 91.247 195.745,91.334 195.605,91.334 195.433 C 91.334 195.262,91.420 195.122,91.525 195.122 C 91.630 195.122,91.777 194.842,91.853 194.499 C 91.928 194.157,92.075 193.876,92.180 193.876 C 92.286 193.876,92.372 193.690,92.372 193.461 C 92.372 193.233,92.461 193.046,92.570 193.046 C 92.679 193.046,92.832 192.696,92.911 192.268 C 92.990 191.840,93.134 191.437,93.231 191.374 C 93.328 191.310,93.468 190.680,93.542 189.973 C 93.616 189.266,93.756 188.687,93.854 188.687 C 93.952 188.687,94.032 187.006,94.032 184.951 C 94.032 182.896,93.951 181.214,93.851 181.214 C 93.752 181.214,93.607 180.654,93.530 179.969 C 93.452 179.284,93.308 178.723,93.210 178.723 C 93.111 178.723,92.968 178.350,92.891 177.893 C 92.813 177.436,92.665 177.063,92.561 177.063 C 92.457 177.063,92.372 176.923,92.372 176.751 C 92.372 176.580,92.282 176.440,92.173 176.440 C 92.064 176.440,91.914 176.116,91.840 175.721 C 91.760 175.293,91.554 174.953,91.333 174.883 C 91.128 174.818,90.902 174.534,90.831 174.253 C 90.761 173.972,90.611 173.742,90.499 173.742 C 90.387 173.742,90.296 173.601,90.296 173.430 C 90.296 173.259,90.209 173.119,90.102 173.119 C 89.996 173.119,89.851 172.937,89.780 172.714 C 89.710 172.492,89.475 172.254,89.258 172.185 C 89.041 172.116,88.799 171.854,88.720 171.603 C 88.535 171.014,87.211 169.691,86.622 169.505 C 86.371 169.426,86.109 169.184,86.040 168.967 C 85.972 168.751,85.738 168.517,85.522 168.448 C 85.305 168.380,85.070 168.141,84.999 167.919 C 84.929 167.696,84.704 167.514,84.501 167.514 C 84.297 167.514,83.916 167.234,83.653 166.892 C 83.391 166.549,83.048 166.269,82.892 166.269 C 82.736 166.269,82.291 165.942,81.903 165.542 C 81.515 165.143,81.109 164.816,81.001 164.816 C 80.894 164.816,80.630 164.582,80.416 164.297 C 80.201 164.011,79.909 163.778,79.766 163.778 C 79.623 163.778,79.238 163.498,78.910 163.155 C 78.583 162.813,78.204 162.532,78.068 162.532 C 77.801 162.532,76.803 161.537,76.803 161.271 C 76.803 161.181,76.601 161.043,76.353 160.965 C 76.106 160.886,75.447 160.366,74.890 159.809 C 74.333 159.252,73.781 158.796,73.664 158.796 C 73.546 158.796,73.101 158.422,72.675 157.966 C 72.250 157.509,71.749 157.135,71.564 157.135 C 71.378 157.135,71.169 156.953,71.098 156.731 C 71.028 156.508,70.793 156.270,70.576 156.201 C 70.359 156.133,70.126 155.899,70.057 155.682 C 69.988 155.466,69.750 155.231,69.528 155.160 C 69.305 155.089,69.123 154.945,69.123 154.838 C 69.123 154.732,69.016 154.645,68.886 154.645 C 68.562 154.645,67.537 153.546,67.370 153.019 C 67.295 152.783,67.056 152.534,66.840 152.465 C 66.623 152.396,66.389 152.163,66.321 151.946 C 66.252 151.729,66.014 151.494,65.791 151.424 C 65.569 151.353,65.387 151.112,65.387 150.888 C 65.387 150.663,65.250 150.428,65.083 150.364 C 64.916 150.299,64.716 150.046,64.638 149.799 C 64.561 149.553,64.337 149.211,64.141 149.040 C 63.945 148.869,63.712 148.495,63.622 148.210 C 63.532 147.924,63.281 147.536,63.064 147.346 C 62.846 147.157,62.614 146.667,62.547 146.257 C 62.481 145.847,62.345 145.511,62.246 145.511 C 62.147 145.511,62.065 145.285,62.065 145.010 C 62.065 144.734,61.953 144.470,61.815 144.424 C 61.461 144.307,61.461 139.866,61.815 139.748 C 61.953 139.702,62.065 139.532,62.065 139.370 C 62.065 139.209,62.159 139.076,62.273 139.076 C 62.387 139.076,62.481 138.903,62.481 138.690 C 62.481 138.478,62.714 138.129,62.999 137.914 C 63.285 137.700,63.518 137.407,63.518 137.263 C 63.518 137.118,63.618 137.001,63.740 137.001 C 63.862 137.001,64.259 136.687,64.622 136.303 C 64.986 135.919,65.493 135.539,65.750 135.459 C 66.007 135.378,66.217 135.225,66.217 135.118 C 66.217 135.012,66.357 134.925,66.528 134.925 C 66.700 134.925,66.840 134.832,66.840 134.720 C 66.840 134.607,67.213 134.455,67.670 134.382 C 68.127 134.309,68.500 134.167,68.500 134.068 C 68.500 133.968,68.640 133.887,68.812 133.887 C 68.983 133.887,69.123 133.802,69.123 133.699 C 69.123 133.595,69.590 133.446,70.161 133.368 C 70.732 133.289,71.199 133.151,71.199 133.061 C 71.199 132.971,71.806 132.832,72.548 132.753 C 73.290 132.673,73.897 132.522,73.897 132.417 C 73.897 132.312,74.310 132.226,74.814 132.226 C 75.318 132.226,75.762 132.136,75.800 132.025 C 75.838 131.914,76.920 131.760,78.204 131.682 C 79.489 131.605,80.540 131.462,80.540 131.365 C 80.540 131.071,93.359 131.142,93.458 131.437 C 93.580 131.803,102.784 131.814,102.906 131.448 C 102.954 131.305,103.218 131.188,103.494 131.188 C 103.770 131.188,103.996 131.102,103.996 130.997 C 103.996 130.892,104.276 130.745,104.619 130.669 C 104.961 130.594,105.241 130.447,105.241 130.342 C 105.241 130.236,105.339 130.150,105.458 130.150 C 105.678 130.150,106.102 129.845,106.549 129.362 C 106.894 128.989,107.124 128.770,107.784 128.185 C 108.098 127.907,108.355 127.535,108.355 127.358 C 108.355 127.181,108.438 127.037,108.540 127.037 C 108.642 127.037,108.789 126.781,108.868 126.468 C 108.946 126.155,109.101 125.844,109.211 125.776 C 109.321 125.707,109.467 124.983,109.536 124.165 C 109.605 123.347,109.740 122.678,109.838 122.678 C 109.936 122.678,110.016 121.604,110.016 120.291 C 110.016 118.978,109.936 117.903,109.839 117.903 C 109.741 117.903,109.599 117.090,109.523 116.097 C 109.446 115.103,109.304 114.239,109.206 114.177 C 109.108 114.114,108.961 113.573,108.880 112.974 C 108.798 112.374,108.647 111.884,108.543 111.884 C 108.440 111.884,108.355 111.697,108.355 111.469 C 108.355 111.240,108.263 111.053,108.150 111.053 C 108.037 111.053,107.885 110.680,107.812 110.223 C 107.739 109.766,107.598 109.393,107.498 109.393 C 107.399 109.393,107.317 109.253,107.317 109.081 C 107.317 108.910,107.234 108.770,107.133 108.770 C 107.031 108.770,106.887 108.443,106.812 108.044 C 106.737 107.644,106.586 107.317,106.477 107.317 C 106.368 107.317,106.279 107.177,106.279 107.006 C 106.279 106.834,106.198 106.694,106.098 106.694 C 105.999 106.694,105.857 106.321,105.784 105.864 C 105.711 105.407,105.570 105.034,105.470 105.034 C 105.369 105.034,105.226 104.707,105.151 104.307 C 105.076 103.908,104.926 103.581,104.817 103.581 C 104.708 103.581,104.619 103.441,104.619 103.269 C 104.619 103.098,104.537 102.958,104.438 102.958 C 104.338 102.958,104.197 102.584,104.124 102.128 C 104.051 101.671,103.899 101.297,103.786 101.297 C 103.673 101.297,103.581 101.111,103.581 100.882 C 103.581 100.654,103.495 100.467,103.390 100.467 C 103.285 100.467,103.137 100.187,103.062 99.844 C 102.987 99.502,102.839 99.222,102.734 99.222 C 102.629 99.222,102.543 99.081,102.543 98.910 C 102.543 98.739,102.460 98.599,102.359 98.599 C 102.258 98.599,102.112 98.179,102.035 97.665 C 101.958 97.151,101.807 96.731,101.700 96.731 C 101.593 96.731,101.505 96.591,101.505 96.419 C 101.505 96.248,101.419 96.108,101.314 96.108 C 101.209 96.108,101.061 95.828,100.986 95.485 C 100.911 95.143,100.774 94.862,100.682 94.862 C 100.590 94.862,100.451 94.442,100.374 93.928 C 100.297 93.415,100.146 92.994,100.039 92.994 C 99.932 92.994,99.844 92.854,99.844 92.683 C 99.844 92.512,99.758 92.372,99.653 92.372 C 99.548 92.372,99.401 92.091,99.325 91.749 C 99.250 91.406,99.103 91.126,98.998 91.126 C 98.892 91.126,98.806 90.893,98.806 90.607 C 98.806 90.322,98.723 90.088,98.622 90.088 C 98.520 90.088,98.376 89.761,98.301 89.362 C 98.226 88.962,98.076 88.635,97.967 88.635 C 97.858 88.635,97.769 88.495,97.769 88.324 C 97.769 88.153,97.686 88.012,97.584 88.012 C 97.483 88.012,97.338 87.686,97.263 87.286 C 97.188 86.886,97.050 86.559,96.955 86.559 C 96.861 86.559,96.724 86.186,96.651 85.729 C 96.578 85.272,96.426 84.899,96.313 84.899 C 96.200 84.899,96.108 84.759,96.108 84.587 C 96.108 84.416,96.025 84.276,95.923 84.276 C 95.822 84.276,95.678 83.949,95.603 83.550 C 95.528 83.150,95.377 82.823,95.268 82.823 C 95.159 82.823,95.070 82.590,95.070 82.304 C 95.070 82.019,94.984 81.785,94.879 81.785 C 94.774 81.785,94.626 81.505,94.551 81.162 C 94.476 80.820,94.350 80.540,94.272 80.540 C 94.068 80.540,93.409 78.953,93.409 78.463 C 93.409 78.235,93.323 78.049,93.218 78.049 C 93.113 78.049,92.966 77.769,92.891 77.426 C 92.815 77.084,92.668 76.803,92.563 76.803 C 92.458 76.803,92.372 76.617,92.372 76.388 C 92.372 76.160,92.279 75.973,92.166 75.973 C 92.054 75.973,91.902 75.599,91.829 75.143 C 91.756 74.686,91.614 74.312,91.515 74.312 C 91.415 74.312,91.334 74.172,91.334 74.001 C 91.334 73.830,91.245 73.690,91.136 73.690 C 91.027 73.690,90.876 73.363,90.801 72.963 C 90.726 72.564,90.582 72.237,90.480 72.237 C 90.379 72.237,90.296 72.097,90.296 71.925 C 90.296 71.754,90.203 71.614,90.091 71.614 C 89.978 71.614,89.826 71.240,89.753 70.784 C 89.680 70.327,89.539 69.953,89.439 69.953 C 89.339 69.953,89.258 69.813,89.258 69.642 C 89.258 69.471,89.175 69.331,89.073 69.331 C 88.972 69.331,88.828 69.004,88.753 68.604 C 88.678 68.204,88.528 67.878,88.421 67.878 C 88.313 67.878,88.165 67.504,88.092 67.047 C 88.019 66.591,87.878 66.217,87.778 66.217 C 87.679 66.217,87.597 66.077,87.597 65.906 C 87.597 65.734,87.514 65.594,87.413 65.594 C 87.311 65.594,87.167 65.267,87.092 64.868 C 87.017 64.468,86.867 64.141,86.758 64.141 C 86.649 64.141,86.559 64.001,86.559 63.830 C 86.559 63.659,86.478 63.518,86.378 63.518 C 86.279 63.518,86.138 63.145,86.065 62.688 C 85.992 62.231,85.839 61.858,85.727 61.858 C 85.614 61.858,85.522 61.671,85.522 61.443 C 85.522 61.214,85.436 61.028,85.330 61.028 C 85.225 61.028,85.078 60.747,85.003 60.405 C 84.927 60.062,84.788 59.782,84.693 59.782 C 84.598 59.782,84.457 59.408,84.380 58.952 C 84.303 58.495,84.154 58.121,84.050 58.121 C 83.946 58.121,83.861 57.935,83.861 57.706 C 83.861 57.478,83.775 57.291,83.670 57.291 C 83.565 57.291,83.417 57.011,83.342 56.668 C 83.267 56.326,83.119 56.046,83.014 56.046 C 82.909 56.046,82.823 55.859,82.823 55.631 C 82.823 55.402,82.742 55.215,82.642 55.215 C 82.542 55.215,82.401 54.842,82.328 54.385 C 82.255 53.928,82.103 53.555,81.990 53.555 C 81.877 53.555,81.785 53.415,81.785 53.243 C 81.785 53.072,81.696 52.932,81.587 52.932 C 81.478 52.932,81.327 52.605,81.253 52.206 C 81.178 51.806,81.041 51.479,80.950 51.479 C 80.859 51.479,80.721 51.105,80.643 50.649 C 80.566 50.192,80.418 49.818,80.314 49.818 C 80.210 49.818,80.125 49.678,80.125 49.507 C 80.125 49.336,80.035 49.196,79.926 49.196 C 79.817 49.196,79.667 48.869,79.592 48.469 C 79.517 48.070,79.373 47.743,79.271 47.743 C 79.170 47.743,79.087 47.602,79.087 47.431 C 79.087 47.260,79.005 47.120,78.906 47.120 C 78.806 47.120,78.665 46.746,78.592 46.290 C 78.519 45.833,78.367 45.459,78.254 45.459 C 78.141 45.459,78.049 45.319,78.049 45.148 C 78.049 44.977,77.966 44.837,77.864 44.837 C 77.763 44.837,77.618 44.510,77.544 44.110 C 77.469 43.710,77.330 43.383,77.236 43.383 C 77.141 43.383,77.004 43.010,76.931 42.553 C 76.858 42.097,76.706 41.723,76.593 41.723 C 76.480 41.723,76.388 41.583,76.388 41.412 C 76.388 41.240,76.305 41.100,76.204 41.100 C 76.102 41.100,75.958 40.773,75.883 40.374 C 75.808 39.974,75.657 39.647,75.548 39.647 C 75.439 39.647,75.350 39.414,75.350 39.128 C 75.350 38.843,75.264 38.609,75.159 38.609 C 75.054 38.609,74.907 38.329,74.831 37.987 C 74.756 37.644,74.609 37.364,74.503 37.364 C 74.398 37.364,74.312 37.177,74.312 36.949 C 74.312 36.720,74.220 36.533,74.107 36.533 C 73.994 36.533,73.842 36.160,73.769 35.703 C 73.696 35.246,73.555 34.873,73.456 34.873 C 73.356 34.873,73.275 34.733,73.275 34.561 C 73.275 34.390,73.192 34.250,73.090 34.250 C 72.989 34.250,72.844 33.923,72.769 33.524 C 72.694 33.124,72.551 32.797,72.451 32.797 C 72.351 32.797,72.208 32.517,72.133 32.174 C 72.058 31.832,71.910 31.552,71.805 31.552 C 71.700 31.552,71.614 31.318,71.614 31.033 C 71.614 30.747,71.525 30.514,71.416 30.514 C 71.307 30.514,71.156 30.187,71.081 29.787 C 71.006 29.388,70.862 29.061,70.761 29.061 C 70.659 29.061,70.576 28.921,70.576 28.749 C 70.576 28.578,70.484 28.438,70.371 28.438 C 70.258 28.438,70.106 28.064,70.033 27.608 C 69.960 27.151,69.819 26.777,69.719 26.777 C 69.620 26.777,69.538 26.591,69.538 26.362 C 69.538 26.134,69.452 25.947,69.347 25.947 C 69.242 25.947,69.094 25.667,69.019 25.324 C 68.944 24.982,68.798 24.702,68.694 24.702 C 68.590 24.702,68.445 24.328,68.372 23.871 C 68.299 23.415,68.158 23.041,68.059 23.041 C 67.959 23.041,67.878 22.854,67.878 22.626 C 67.878 22.398,67.792 22.211,67.686 22.211 C 67.581 22.211,67.434 21.930,67.359 21.588 C 67.283 21.245,67.136 20.965,67.031 20.965 C 66.926 20.965,66.840 20.825,66.840 20.654 C 66.840 20.483,66.752 20.343,66.645 20.343 C 66.538 20.343,66.387 19.922,66.310 19.408 C 66.233 18.895,66.087 18.474,65.986 18.474 C 65.885 18.474,65.802 18.334,65.802 18.163 C 65.802 17.992,65.716 17.852,65.611 17.852 C 65.506 17.852,65.358 17.571,65.283 17.229 C 65.208 16.886,65.072 16.606,64.981 16.606 C 64.890 16.606,64.755 16.303,64.681 15.933 C 64.510 15.079,64.087 14.115,63.883 14.115 C 63.797 14.115,63.726 14.013,63.726 13.887 C 63.726 13.612,63.076 12.185,62.885 12.039 C 62.809 11.982,62.684 11.585,62.605 11.157 C 62.526 10.729,62.373 10.379,62.264 10.379 C 62.155 10.379,62.065 10.239,62.065 10.067 C 62.065 9.896,61.982 9.756,61.881 9.756 C 61.779 9.756,61.635 9.429,61.560 9.030 C 61.485 8.630,61.335 8.303,61.226 8.303 C 61.117 8.303,61.028 8.163,61.028 7.992 C 61.028 7.820,60.946 7.680,60.846 7.680 C 60.747 7.680,60.606 7.307,60.533 6.850 C 60.460 6.393,60.318 6.020,60.218 6.020 C 60.118 6.020,59.974 5.693,59.900 5.293 C 59.825 4.894,59.674 4.567,59.565 4.567 C 59.456 4.567,59.367 4.427,59.367 4.255 C 59.367 4.084,59.284 3.944,59.182 3.944 C 59.080 3.944,58.938 3.710,58.866 3.425 C 58.795 3.140,58.645 2.906,58.533 2.906 C 58.421 2.906,58.329 2.766,58.329 2.595 C 58.329 2.423,58.242 2.283,58.135 2.283 C 58.029 2.283,57.884 2.101,57.813 1.879 C 57.743 1.656,57.508 1.418,57.291 1.349 C 57.074 1.280,56.842 1.050,56.774 0.837 C 56.547 0.120,53.136 -0.280,50.895 0.148 M52.874 53.371 C 52.670 53.593,52.448 54.053,52.381 54.392 C 52.313 54.730,52.176 55.008,52.076 55.008 C 51.976 55.008,51.894 55.241,51.894 55.527 C 51.894 55.812,51.813 56.046,51.713 56.046 C 51.614 56.046,51.472 56.419,51.399 56.876 C 51.326 57.333,51.174 57.706,51.061 57.706 C 50.949 57.706,50.856 57.846,50.856 58.018 C 50.856 58.189,50.775 58.329,50.675 58.329 C 50.576 58.329,50.434 58.703,50.361 59.159 C 50.288 59.616,50.136 59.990,50.023 59.990 C 49.911 59.990,49.818 60.223,49.818 60.509 C 49.818 60.794,49.733 61.028,49.629 61.028 C 49.525 61.028,49.377 61.401,49.299 61.858 C 49.222 62.314,49.080 62.688,48.983 62.688 C 48.885 62.688,48.743 63.108,48.666 63.622 C 48.589 64.136,48.443 64.556,48.342 64.556 C 48.241 64.556,48.158 64.696,48.158 64.868 C 48.158 65.039,48.076 65.179,47.977 65.179 C 47.877 65.179,47.736 65.553,47.663 66.009 C 47.590 66.466,47.438 66.840,47.325 66.840 C 47.212 66.840,47.120 67.073,47.120 67.359 C 47.120 67.644,47.028 67.878,46.915 67.878 C 46.802 67.878,46.650 68.251,46.577 68.708 C 46.504 69.165,46.363 69.538,46.263 69.538 C 46.163 69.538,46.082 69.725,46.082 69.953 C 46.082 70.182,45.990 70.368,45.877 70.368 C 45.764 70.368,45.612 70.742,45.539 71.199 C 45.466 71.655,45.325 72.029,45.225 72.029 C 45.126 72.029,45.044 72.169,45.044 72.340 C 45.044 72.512,44.964 72.652,44.865 72.652 C 44.767 72.652,44.731 72.885,44.786 73.171 C 44.844 73.474,44.788 73.690,44.653 73.690 C 44.526 73.690,44.421 73.830,44.421 74.001 C 44.421 74.172,44.340 74.312,44.240 74.312 C 44.141 74.312,44.000 74.686,43.927 75.143 C 43.853 75.599,43.701 75.973,43.589 75.973 C 43.476 75.973,43.383 76.149,43.383 76.364 C 43.383 76.580,43.244 77.023,43.073 77.350 C 42.903 77.677,42.763 78.155,42.762 78.412 C 42.761 78.669,42.667 78.879,42.553 78.879 C 42.439 78.879,42.346 79.019,42.346 79.190 C 42.346 79.362,42.264 79.502,42.165 79.502 C 42.065 79.502,41.924 79.875,41.851 80.332 C 41.778 80.789,41.626 81.162,41.513 81.162 C 41.400 81.162,41.308 81.396,41.308 81.681 C 41.308 81.967,41.215 82.200,41.103 82.200 C 40.990 82.200,40.838 82.574,40.765 83.031 C 40.692 83.487,40.550 83.861,40.451 83.861 C 40.152 83.861,40.247 85.321,40.566 85.640 C 40.895 85.968,42.968 86.061,42.968 85.747 C 42.968 85.643,43.342 85.495,43.799 85.418 C 44.255 85.341,44.629 85.192,44.629 85.088 C 44.629 84.984,44.862 84.899,45.148 84.899 C 45.433 84.899,45.667 84.811,45.667 84.704 C 45.667 84.597,46.087 84.446,46.601 84.369 C 47.115 84.292,47.535 84.146,47.535 84.045 C 47.535 83.944,47.675 83.861,47.846 83.861 C 48.018 83.861,48.158 83.776,48.158 83.673 C 48.158 83.569,48.625 83.420,49.196 83.342 C 49.766 83.263,50.234 83.116,50.234 83.014 C 50.234 82.911,50.607 82.768,51.064 82.695 C 51.520 82.622,51.894 82.481,51.894 82.381 C 51.894 82.282,52.120 82.200,52.396 82.200 C 52.672 82.200,52.937 82.084,52.985 81.941 C 53.103 81.587,56.502 81.597,56.620 81.952 C 56.666 82.088,56.929 82.200,57.205 82.200 C 57.481 82.200,57.706 82.283,57.706 82.384 C 57.706 82.485,58.220 82.632,58.848 82.710 C 59.476 82.789,59.990 82.935,59.990 83.035 C 59.990 83.136,60.550 83.281,61.235 83.358 C 61.920 83.436,62.481 83.581,62.481 83.680 C 62.481 83.780,62.714 83.861,62.999 83.861 C 63.285 83.861,63.518 83.944,63.518 84.045 C 63.518 84.146,63.939 84.292,64.453 84.369 C 64.966 84.446,65.387 84.597,65.387 84.704 C 65.387 84.811,65.714 84.899,66.113 84.899 C 66.513 84.899,66.840 84.992,66.840 85.106 C 66.840 85.433,68.902 85.357,69.242 85.017 C 69.567 84.692,69.664 82.615,69.354 82.615 C 69.252 82.615,69.108 82.289,69.033 81.889 C 68.958 81.489,68.815 81.162,68.715 81.162 C 68.615 81.162,68.472 80.883,68.397 80.542 C 68.322 80.201,68.175 79.868,68.069 79.803 C 67.964 79.738,67.878 79.504,67.878 79.282 C 67.878 79.060,67.795 78.879,67.693 78.879 C 67.592 78.879,67.447 78.552,67.372 78.153 C 67.297 77.753,67.147 77.426,67.038 77.426 C 66.929 77.426,66.840 77.286,66.840 77.115 C 66.840 76.943,66.752 76.803,66.645 76.803 C 66.538 76.803,66.387 76.383,66.310 75.869 C 66.233 75.355,66.087 74.935,65.986 74.935 C 65.885 74.935,65.802 74.795,65.802 74.624 C 65.802 74.453,65.716 74.312,65.611 74.312 C 65.506 74.312,65.358 74.032,65.283 73.690 C 65.208 73.347,65.072 73.067,64.981 73.067 C 64.890 73.067,64.755 72.764,64.681 72.394 C 64.516 71.568,64.089 70.576,63.899 70.576 C 63.822 70.576,63.697 70.296,63.622 69.953 C 63.547 69.611,63.399 69.331,63.294 69.331 C 63.189 69.331,63.103 69.144,63.103 68.915 C 63.103 68.687,63.011 68.500,62.898 68.500 C 62.785 68.500,62.633 68.127,62.560 67.670 C 62.487 67.213,62.346 66.840,62.246 66.840 C 62.147 66.840,62.065 66.700,62.065 66.528 C 62.065 66.357,61.976 66.217,61.867 66.217 C 61.758 66.217,61.608 65.890,61.533 65.490 C 61.458 65.091,61.313 64.764,61.212 64.764 C 61.111 64.764,61.028 64.624,61.028 64.453 C 61.028 64.281,60.946 64.141,60.846 64.141 C 60.747 64.141,60.606 63.768,60.533 63.311 C 60.460 62.854,60.312 62.481,60.204 62.481 C 60.097 62.481,59.947 62.154,59.872 61.754 C 59.797 61.354,59.653 61.028,59.551 61.028 C 59.450 61.028,59.367 60.887,59.367 60.716 C 59.367 60.545,59.275 60.405,59.162 60.405 C 59.049 60.405,58.897 60.031,58.824 59.574 C 58.751 59.118,58.610 58.744,58.510 58.744 C 58.410 58.744,58.329 58.604,58.329 58.433 C 58.329 58.262,58.246 58.121,58.145 58.121 C 58.043 58.121,57.899 57.794,57.824 57.395 C 57.749 56.995,57.598 56.668,57.489 56.668 C 57.380 56.668,57.291 56.528,57.291 56.357 C 57.291 56.186,57.208 56.046,57.107 56.046 C 57.006 56.046,56.860 55.625,56.783 55.112 C 56.706 54.598,56.555 54.177,56.448 54.177 C 56.341 54.177,56.253 54.058,56.253 53.912 C 56.253 52.957,53.635 52.538,52.874 53.371 " stroke="none" fill="#04a4dc" fill-rule="evenodd"></path><path id="path1" d="M320.039 96.827 C 319.321 97.565,318.621 98.289,318.484 98.436 C 318.347 98.583,318.113 98.817,317.965 98.956 C 317.554 99.343,317.191 99.704,316.809 100.104 C 316.618 100.304,316.372 100.467,316.262 100.467 C 316.153 100.467,315.613 100.934,315.063 101.504 L 314.063 102.541 314.063 114.894 L 314.063 127.247 315.010 128.180 C 315.530 128.693,316.040 129.113,316.144 129.113 C 316.247 129.113,317.493 130.280,318.913 131.707 L 321.495 134.302 332.836 134.302 L 344.178 134.302 346.753 131.707 C 348.168 130.280,349.383 129.113,349.452 129.113 C 349.597 129.113,349.957 128.820,350.811 128.007 L 351.427 127.420 351.427 114.886 L 351.427 102.351 350.512 101.409 C 350.008 100.891,349.500 100.467,349.383 100.467 C 349.209 100.467,348.077 99.392,346.715 97.932 C 346.577 97.785,346.344 97.552,346.196 97.415 C 346.048 97.278,345.814 97.044,345.677 96.896 C 345.540 96.748,345.306 96.515,345.158 96.377 C 345.010 96.240,344.768 95.983,344.621 95.807 C 344.385 95.524,342.979 95.485,332.849 95.485 L 321.345 95.485 320.039 96.827 M118.941 96.034 C 118.941 96.221,119.222 96.642,119.564 96.969 C 119.907 97.297,120.187 97.682,120.187 97.825 C 120.187 97.968,120.420 98.261,120.706 98.475 C 120.991 98.689,121.225 98.996,121.225 99.157 C 121.225 99.317,121.458 99.665,121.744 99.930 C 122.029 100.194,122.263 100.483,122.263 100.570 C 122.263 100.658,122.590 101.038,122.989 101.415 C 123.389 101.791,123.716 102.195,123.716 102.312 C 123.716 102.429,123.930 102.739,124.193 103.001 C 124.455 103.263,124.732 103.641,124.809 103.841 C 124.885 104.040,125.038 104.203,125.148 104.203 C 125.258 104.203,125.412 104.406,125.491 104.653 C 125.569 104.900,125.856 105.325,126.128 105.596 C 126.399 105.868,126.622 106.186,126.622 106.303 C 126.622 106.419,126.949 106.823,127.348 107.200 C 127.748 107.577,128.075 107.957,128.075 108.044 C 128.075 108.132,128.308 108.420,128.594 108.685 C 128.879 108.949,129.113 109.297,129.113 109.458 C 129.113 109.618,129.346 109.925,129.632 110.140 C 129.917 110.354,130.150 110.643,130.150 110.782 C 130.150 110.921,130.384 111.268,130.669 111.554 C 130.955 111.839,131.188 112.137,131.188 112.215 C 131.188 112.294,131.469 112.626,131.811 112.953 C 132.154 113.280,132.434 113.679,132.434 113.840 C 132.434 114.001,132.551 114.182,132.693 114.242 C 132.879 114.320,132.850 114.416,132.590 114.581 C 132.390 114.707,132.226 114.993,132.226 115.215 C 132.226 115.438,132.146 115.620,132.049 115.620 C 131.782 115.620,130.773 116.605,130.773 116.866 C 130.773 116.991,130.540 117.309,130.254 117.574 C 129.969 117.838,129.735 118.145,129.735 118.256 C 129.735 118.367,129.458 118.729,129.118 119.062 C 128.779 119.395,128.499 119.825,128.496 120.017 C 128.492 120.209,128.308 120.424,128.085 120.495 C 127.863 120.565,127.618 120.823,127.540 121.066 C 127.463 121.310,127.084 121.807,126.699 122.170 C 126.314 122.533,125.999 122.896,125.999 122.977 C 125.999 123.057,125.882 123.253,125.739 123.412 C 125.164 124.054,124.961 124.328,124.961 124.463 C 124.961 124.541,124.681 124.873,124.338 125.200 C 123.996 125.527,123.716 125.912,123.716 126.055 C 123.716 126.198,123.482 126.491,123.197 126.705 C 122.911 126.920,122.678 127.269,122.678 127.481 C 122.678 127.693,122.588 127.867,122.479 127.867 C 122.211 127.867,121.225 128.945,121.225 129.237 C 121.225 129.365,120.991 129.645,120.706 129.859 C 120.420 130.074,120.187 130.366,120.187 130.509 C 120.187 130.652,119.907 131.037,119.564 131.365 C 119.222 131.692,118.941 132.113,118.941 132.301 C 118.941 132.488,118.855 132.641,118.749 132.641 C 118.453 132.641,117.903 133.258,117.903 133.590 C 117.903 133.839,118.678 133.887,122.678 133.887 C 126.792 133.887,127.452 133.844,127.452 133.574 C 127.452 133.402,127.686 133.058,127.971 132.810 C 128.256 132.562,128.490 132.256,128.490 132.131 C 128.490 132.006,128.653 131.749,128.853 131.560 C 129.363 131.079,129.735 130.608,129.735 130.443 C 129.735 130.366,130.050 130.006,130.436 129.643 C 130.821 129.280,131.199 128.783,131.277 128.539 C 131.354 128.295,131.594 128.040,131.811 127.971 C 132.028 127.902,132.268 127.648,132.344 127.407 C 132.421 127.166,132.706 126.746,132.978 126.474 C 133.249 126.202,133.472 125.879,133.472 125.755 C 133.472 125.631,133.787 125.232,134.172 124.869 C 134.557 124.505,134.936 124.009,135.013 123.765 C 135.090 123.521,135.331 123.265,135.547 123.197 C 135.764 123.128,136.004 122.874,136.081 122.633 C 136.157 122.391,136.442 121.972,136.714 121.700 C 136.986 121.428,137.208 121.092,137.208 120.954 C 137.208 120.395,137.964 120.190,138.429 120.624 C 138.671 120.849,138.869 121.129,138.869 121.247 C 138.869 121.364,139.196 121.768,139.595 122.145 C 139.995 122.522,140.322 122.894,140.322 122.970 C 140.322 123.135,140.694 123.606,141.204 124.088 C 141.404 124.276,141.567 124.508,141.567 124.601 C 141.567 124.695,141.801 125.006,142.086 125.291 C 142.372 125.577,142.605 125.906,142.605 126.022 C 142.605 126.139,142.932 126.543,143.332 126.920 C 143.731 127.296,144.058 127.676,144.058 127.763 C 144.058 127.851,144.385 128.230,144.785 128.607 C 145.184 128.984,145.511 129.389,145.511 129.507 C 145.511 129.625,145.791 130.008,146.134 130.358 C 146.476 130.708,146.757 131.090,146.757 131.205 C 146.757 131.321,146.990 131.632,147.276 131.897 C 147.561 132.161,147.794 132.444,147.794 132.525 C 147.794 132.607,148.068 132.946,148.401 133.280 L 149.008 133.887 153.487 133.887 C 157.330 133.887,157.966 133.843,157.966 133.576 C 157.966 133.404,157.879 133.264,157.772 133.264 C 157.666 133.264,157.513 133.054,157.432 132.797 C 157.351 132.540,157.065 132.124,156.795 131.873 C 156.526 131.621,156.305 131.316,156.305 131.195 C 156.305 131.073,155.978 130.656,155.579 130.268 C 155.179 129.880,154.852 129.468,154.852 129.353 C 154.852 129.237,154.619 128.959,154.333 128.735 C 154.048 128.510,153.814 128.226,153.814 128.104 C 153.814 127.982,153.534 127.595,153.191 127.244 C 152.849 126.894,152.569 126.513,152.569 126.397 C 152.569 126.281,152.335 125.970,152.050 125.706 C 151.764 125.441,151.531 125.153,151.531 125.066 C 151.531 124.978,151.216 124.609,150.831 124.246 C 150.446 123.883,150.066 123.381,149.986 123.132 C 149.907 122.882,149.761 122.678,149.663 122.678 C 149.564 122.678,149.418 122.473,149.339 122.224 C 149.260 121.974,148.880 121.473,148.495 121.110 C 148.110 120.746,147.794 120.377,147.794 120.290 C 147.794 120.202,147.561 119.914,147.276 119.650 C 146.990 119.385,146.757 119.074,146.757 118.958 C 146.757 118.843,146.476 118.461,146.134 118.111 C 145.791 117.761,145.511 117.359,145.511 117.219 C 145.511 117.079,145.278 116.789,144.992 116.574 C 144.707 116.360,144.473 116.097,144.473 115.989 C 144.473 115.881,144.139 115.468,143.730 115.071 L 142.987 114.350 143.522 113.853 C 143.817 113.580,144.058 113.254,144.058 113.129 C 144.058 113.004,144.292 112.685,144.577 112.421 C 144.862 112.156,145.096 111.868,145.096 111.780 C 145.096 111.692,145.330 111.404,145.615 111.139 C 145.900 110.875,146.134 110.547,146.134 110.411 C 146.134 110.275,146.414 109.897,146.757 109.569 C 147.099 109.242,147.379 108.857,147.379 108.714 C 147.379 108.571,147.613 108.278,147.898 108.064 C 148.184 107.849,148.417 107.590,148.417 107.486 C 148.417 107.383,148.651 107.065,148.936 106.779 C 149.222 106.494,149.455 106.159,149.455 106.034 C 149.455 105.910,149.689 105.591,149.974 105.327 C 150.259 105.062,150.493 104.744,150.493 104.619 C 150.493 104.358,151.502 103.373,151.769 103.373 C 151.866 103.373,151.946 103.199,151.946 102.987 C 151.946 102.775,152.180 102.426,152.465 102.211 C 152.750 101.997,152.984 101.718,152.984 101.591 C 152.984 101.465,153.171 101.145,153.399 100.882 C 153.627 100.619,153.814 100.284,153.814 100.138 C 153.814 99.992,153.996 99.815,154.219 99.744 C 154.441 99.673,154.687 99.413,154.766 99.166 C 154.844 98.919,155.223 98.412,155.607 98.039 C 155.991 97.666,156.305 97.229,156.305 97.068 C 156.305 96.907,156.445 96.721,156.617 96.656 C 156.788 96.590,156.928 96.346,156.928 96.114 C 156.928 95.704,156.813 95.693,152.458 95.693 L 147.988 95.693 147.372 96.323 C 147.034 96.669,146.757 97.047,146.757 97.163 C 146.757 97.279,146.523 97.590,146.238 97.854 C 145.952 98.119,145.719 98.437,145.719 98.561 C 145.719 98.686,145.485 99.021,145.200 99.307 C 144.914 99.592,144.681 99.910,144.681 100.013 C 144.681 100.117,144.447 100.377,144.162 100.591 C 143.876 100.805,143.643 101.094,143.643 101.233 C 143.643 101.372,143.421 101.708,143.149 101.980 C 142.877 102.252,142.592 102.672,142.516 102.913 C 142.439 103.154,142.194 103.410,141.972 103.480 C 141.749 103.551,141.567 103.728,141.567 103.874 C 141.567 104.020,141.380 104.355,141.152 104.619 C 140.924 104.882,140.737 105.183,140.737 105.287 C 140.737 105.391,140.410 105.785,140.010 106.162 C 139.611 106.539,139.284 106.910,139.284 106.987 C 139.284 107.065,139.050 107.379,138.765 107.687 C 138.480 107.995,138.246 108.365,138.246 108.509 C 138.246 108.985,137.027 107.956,137.007 107.463 C 137.003 107.373,136.767 107.065,136.482 106.779 C 136.196 106.494,135.963 106.147,135.963 106.008 C 135.963 105.869,135.729 105.580,135.444 105.365 C 135.158 105.151,134.925 104.808,134.925 104.603 C 134.925 104.399,134.743 104.174,134.520 104.103 C 134.298 104.032,134.051 103.769,133.972 103.518 C 133.894 103.267,133.609 102.856,133.339 102.605 C 133.070 102.353,132.849 102.048,132.849 101.926 C 132.849 101.805,132.522 101.388,132.122 101.000 C 131.723 100.612,131.396 100.206,131.396 100.098 C 131.396 99.991,131.162 99.727,130.877 99.513 C 130.592 99.298,130.358 99.009,130.358 98.870 C 130.358 98.731,130.136 98.395,129.864 98.124 C 129.592 97.852,129.306 97.427,129.227 97.180 C 129.149 96.933,128.995 96.731,128.886 96.731 C 128.777 96.731,128.598 96.497,128.490 96.212 L 128.293 95.693 123.617 95.693 C 119.420 95.693,118.941 95.728,118.941 96.034 M162.463 95.831 C 162.387 95.907,162.325 104.501,162.325 114.928 L 162.325 133.887 178.827 133.887 L 195.330 133.887 195.330 130.462 L 195.330 127.037 182.771 127.037 L 170.213 127.037 170.213 122.678 L 170.213 118.319 179.554 118.319 L 188.895 118.319 188.895 114.894 L 188.895 111.469 179.554 111.469 L 170.213 111.469 170.213 107.006 L 170.213 102.543 182.667 102.543 L 195.122 102.543 195.122 99.118 L 195.122 95.693 178.862 95.693 C 169.919 95.693,162.539 95.755,162.463 95.831 M201.972 114.790 L 201.972 133.887 205.812 133.887 L 209.652 133.887 209.652 121.328 C 209.652 114.421,209.725 108.770,209.814 108.770 C 210.031 108.770,210.690 109.553,210.690 109.810 C 210.690 109.923,210.777 110.016,210.884 110.016 C 210.990 110.016,211.135 110.198,211.206 110.420 C 211.276 110.643,211.516 110.882,211.739 110.953 C 211.961 111.024,212.143 111.248,212.143 111.452 C 212.143 111.655,212.423 112.036,212.766 112.299 C 213.108 112.561,213.389 112.943,213.389 113.146 C 213.389 113.350,213.571 113.574,213.793 113.645 C 214.016 113.715,214.256 113.955,214.326 114.178 C 214.397 114.400,214.542 114.582,214.648 114.582 C 214.755 114.582,214.842 114.707,214.842 114.859 C 214.842 115.012,215.122 115.386,215.464 115.691 C 215.807 115.996,216.087 116.345,216.087 116.466 C 216.087 116.587,216.414 116.994,216.814 117.371 C 217.213 117.748,217.540 118.119,217.540 118.196 C 217.540 118.361,217.912 118.832,218.422 119.313 C 218.622 119.502,218.786 119.759,218.786 119.883 C 218.786 120.008,219.113 120.400,219.512 120.754 C 219.912 121.107,220.239 121.500,220.239 121.626 C 220.239 121.752,220.566 122.172,220.965 122.560 C 221.365 122.948,221.692 123.360,221.692 123.475 C 221.692 123.590,221.972 123.964,222.314 124.306 C 222.657 124.649,222.937 124.995,222.937 125.076 C 222.937 125.157,223.264 125.532,223.664 125.909 C 224.063 126.285,224.390 126.693,224.390 126.814 C 224.390 126.934,224.670 127.301,225.013 127.628 C 225.355 127.956,225.636 128.297,225.636 128.388 C 225.636 128.478,225.963 128.869,226.362 129.257 C 226.762 129.645,227.089 130.065,227.089 130.190 C 227.089 130.315,227.369 130.685,227.711 131.012 C 228.054 131.339,228.334 131.706,228.334 131.827 C 228.334 131.948,228.661 132.355,229.061 132.732 C 229.460 133.109,229.787 133.523,229.787 133.652 C 229.787 133.819,230.934 133.887,233.732 133.887 L 237.677 133.887 237.624 114.842 L 237.571 95.797 233.679 95.740 L 229.787 95.684 229.787 108.350 C 229.787 115.317,229.741 121.017,229.683 121.017 C 229.492 121.017,228.749 120.189,228.749 119.976 C 228.749 119.859,228.435 119.459,228.051 119.086 C 227.667 118.713,227.288 118.206,227.210 117.959 C 227.132 117.712,226.890 117.453,226.674 117.385 C 226.457 117.316,226.215 117.054,226.136 116.803 C 226.057 116.552,225.679 116.049,225.295 115.686 C 224.912 115.323,224.598 114.926,224.598 114.806 C 224.598 114.685,224.318 114.318,223.975 113.991 C 223.633 113.663,223.352 113.242,223.352 113.055 C 223.352 112.867,223.273 112.714,223.175 112.714 C 222.898 112.714,221.899 111.724,221.899 111.449 C 221.899 111.313,221.619 110.934,221.277 110.607 C 220.934 110.280,220.654 109.913,220.654 109.792 C 220.654 109.671,220.327 109.264,219.927 108.887 C 219.528 108.510,219.201 108.136,219.201 108.055 C 219.201 107.974,218.921 107.628,218.578 107.285 C 218.236 106.943,217.955 106.568,217.955 106.453 C 217.955 106.339,217.628 105.927,217.229 105.539 C 216.829 105.151,216.502 104.734,216.502 104.612 C 216.502 104.357,215.490 103.373,215.227 103.373 C 215.129 103.373,215.047 103.210,215.044 103.010 C 215.040 102.810,214.760 102.374,214.421 102.041 C 214.081 101.708,213.804 101.346,213.804 101.235 C 213.804 101.125,213.489 100.738,213.104 100.375 C 212.718 100.011,212.340 99.515,212.263 99.271 C 212.185 99.027,211.945 98.771,211.728 98.703 C 211.511 98.634,211.270 98.375,211.192 98.128 C 211.113 97.881,210.735 97.374,210.351 97.001 C 209.967 96.628,209.652 96.181,209.652 96.008 C 209.652 95.738,209.107 95.693,205.812 95.693 L 201.972 95.693 201.972 114.790 M250.752 96.731 C 250.239 97.294,249.661 97.758,249.469 97.762 C 249.277 97.766,249.062 97.951,248.991 98.173 C 248.921 98.396,248.686 98.634,248.469 98.703 C 248.252 98.771,248.017 99.010,247.947 99.232 C 247.876 99.455,247.738 99.637,247.641 99.637 C 247.486 99.637,247.148 99.953,246.040 101.135 C 245.903 101.281,245.669 101.513,245.521 101.651 C 244.751 102.364,244.733 102.484,244.733 106.896 L 244.733 111.266 247.000 113.547 C 248.247 114.801,249.373 115.828,249.501 115.828 C 249.629 115.828,249.962 116.085,250.240 116.399 C 250.903 117.147,251.085 117.333,251.460 117.644 C 251.699 117.842,253.807 117.903,260.418 117.903 L 269.062 117.903 270.281 119.149 C 270.951 119.834,271.596 120.394,271.713 120.394 C 272.248 120.394,271.964 124.699,271.420 124.835 C 271.142 124.905,270.857 125.144,270.787 125.366 C 270.716 125.588,270.477 125.828,270.254 125.899 C 270.032 125.969,269.850 126.107,269.850 126.206 C 269.850 127.027,269.698 127.037,257.276 127.037 L 245.355 127.037 245.355 130.462 L 245.355 133.887 259.078 133.887 L 272.800 133.887 273.833 132.849 C 274.401 132.278,274.945 131.811,275.042 131.811 C 275.140 131.811,276.253 130.781,277.516 129.523 L 279.813 127.234 279.813 122.375 C 279.813 117.699,279.798 117.511,279.398 117.385 C 279.170 117.312,278.983 117.173,278.983 117.075 C 278.983 116.921,278.666 116.583,277.485 115.474 C 277.338 115.337,277.106 115.104,276.969 114.955 C 276.832 114.807,276.598 114.574,276.450 114.437 C 276.302 114.299,276.068 114.066,275.931 113.918 C 275.562 113.519,275.072 113.129,274.941 113.129 C 274.878 113.129,274.361 112.662,273.793 112.091 L 272.761 111.053 264.048 111.053 L 255.335 111.053 254.497 110.207 C 254.036 109.741,253.659 109.280,253.659 109.183 C 253.659 109.086,253.448 108.977,253.191 108.940 C 252.428 108.832,252.376 104.619,253.139 104.619 C 253.306 104.619,253.904 104.152,254.469 103.581 L 255.496 102.543 266.617 102.543 L 277.737 102.543 277.737 99.118 L 277.737 95.693 264.712 95.699 L 251.687 95.706 250.752 96.731 M284.933 95.831 C 284.857 95.907,284.795 97.449,284.795 99.256 L 284.795 102.543 288.531 102.543 L 292.268 102.543 292.268 114.790 L 292.268 127.037 288.531 127.037 L 284.795 127.037 284.795 130.462 L 284.795 133.887 296.212 133.887 L 307.628 133.887 307.628 130.462 L 307.628 127.037 303.892 127.037 L 300.156 127.037 300.156 114.790 L 300.156 102.543 303.892 102.543 L 307.628 102.543 307.628 99.118 L 307.628 95.693 296.350 95.693 C 290.147 95.693,285.010 95.755,284.933 95.831 M359.730 114.790 L 359.730 133.887 363.674 133.887 L 367.618 133.887 367.618 121.335 C 367.618 110.408,367.657 108.798,367.922 108.900 C 368.088 108.964,368.288 109.214,368.365 109.457 C 368.442 109.699,368.819 110.202,369.203 110.575 C 369.587 110.949,369.901 111.353,369.901 111.475 C 369.901 111.731,370.914 112.714,371.177 112.714 C 371.275 112.714,371.354 112.880,371.354 113.083 C 371.354 113.286,371.518 113.606,371.718 113.795 C 372.228 114.277,372.600 114.748,372.600 114.912 C 372.600 114.989,372.915 115.349,373.300 115.713 C 373.685 116.076,374.064 116.572,374.141 116.816 C 374.218 117.060,374.459 117.316,374.676 117.385 C 374.892 117.453,375.133 117.715,375.211 117.966 C 375.289 118.217,375.668 118.730,376.052 119.107 C 376.437 119.484,376.751 119.913,376.751 120.062 C 376.751 120.211,377.032 120.547,377.374 120.810 C 377.717 121.072,377.997 121.453,377.997 121.657 C 377.997 121.860,378.179 122.085,378.401 122.155 C 378.624 122.226,378.864 122.466,378.934 122.688 C 379.005 122.911,379.150 123.093,379.256 123.093 C 379.363 123.093,379.450 123.193,379.450 123.316 C 379.450 123.439,379.730 123.820,380.073 124.163 C 380.415 124.505,380.695 124.878,380.695 124.991 C 380.695 125.104,381.022 125.505,381.422 125.882 C 381.821 126.259,382.148 126.673,382.148 126.802 C 382.148 126.931,382.236 127.037,382.342 127.037 C 382.448 127.037,382.593 127.219,382.664 127.441 C 382.735 127.664,382.974 127.904,383.197 127.974 C 383.419 128.045,383.601 128.233,383.601 128.393 C 383.601 128.553,383.882 128.970,384.224 129.320 C 384.567 129.671,384.847 130.049,384.847 130.161 C 384.847 130.274,385.161 130.671,385.545 131.044 C 385.929 131.417,386.308 131.924,386.386 132.171 C 386.465 132.418,386.711 132.678,386.933 132.748 C 387.155 132.819,387.394 133.104,387.464 133.382 L 387.590 133.887 391.512 133.887 L 395.433 133.887 395.433 114.790 L 395.433 95.693 391.489 95.693 L 387.545 95.693 387.545 108.370 C 387.545 119.894,387.516 121.017,387.219 120.721 C 387.040 120.541,386.806 120.394,386.700 120.394 C 386.594 120.394,386.508 120.241,386.508 120.054 C 386.508 119.866,386.227 119.445,385.885 119.118 C 385.542 118.790,385.262 118.424,385.262 118.303 C 385.262 118.182,384.948 117.786,384.564 117.422 C 384.181 117.059,383.802 116.556,383.724 116.305 C 383.645 116.054,383.403 115.793,383.186 115.724 C 382.970 115.655,382.728 115.397,382.650 115.150 C 382.571 114.903,382.193 114.395,381.809 114.022 C 381.425 113.649,381.107 113.226,381.102 113.081 C 381.097 112.936,380.817 112.589,380.479 112.309 C 380.141 112.029,379.865 111.638,379.865 111.440 C 379.865 111.243,379.683 111.024,379.461 110.953 C 379.238 110.882,378.998 110.643,378.928 110.420 C 378.857 110.198,378.712 110.016,378.606 110.016 C 378.499 110.016,378.412 109.910,378.412 109.781 C 378.412 109.651,378.097 109.248,377.712 108.885 C 377.327 108.522,376.948 108.025,376.871 107.782 C 376.793 107.538,376.548 107.281,376.326 107.210 C 376.104 107.140,375.865 106.855,375.795 106.577 C 375.726 106.299,375.592 106.072,375.497 106.072 C 375.403 106.072,375.269 105.890,375.198 105.667 C 375.127 105.445,374.888 105.205,374.665 105.134 C 374.443 105.064,374.261 104.839,374.261 104.636 C 374.261 104.432,373.980 104.051,373.638 103.788 C 373.295 103.526,373.015 103.144,373.015 102.941 C 373.015 102.737,372.833 102.513,372.611 102.442 C 372.388 102.372,372.148 102.132,372.078 101.909 C 372.007 101.687,371.862 101.505,371.756 101.505 C 371.649 101.505,371.562 101.380,371.562 101.228 C 371.562 101.075,371.282 100.701,370.939 100.396 C 370.597 100.091,370.317 99.742,370.317 99.621 C 370.317 99.500,369.990 99.093,369.590 98.716 C 369.190 98.339,368.864 97.968,368.864 97.891 C 368.864 97.747,368.596 97.395,368.015 96.773 C 367.833 96.578,367.626 96.256,367.554 96.056 C 367.436 95.728,367.052 95.693,363.577 95.693 L 359.730 95.693 359.730 114.790 M340.718 102.854 C 341.003 103.140,341.325 103.373,341.433 103.373 C 341.541 103.373,342.105 103.840,342.688 104.410 L 343.747 105.447 343.747 114.802 L 343.747 124.158 342.619 125.286 C 341.998 125.906,341.434 126.414,341.364 126.414 C 341.244 126.414,340.957 126.630,340.329 127.193 C 340.110 127.390,338.289 127.452,332.750 127.452 L 325.460 127.452 324.979 126.933 C 324.715 126.648,324.435 126.414,324.358 126.414 C 324.206 126.414,323.743 126.056,323.342 125.629 C 323.205 125.483,322.836 125.093,322.522 124.763 L 321.951 124.163 321.951 114.803 L 321.951 105.443 322.992 104.408 C 323.564 103.839,324.149 103.373,324.292 103.373 C 324.434 103.373,324.727 103.140,324.941 102.854 L 325.331 102.335 332.765 102.335 L 340.199 102.335 340.718 102.854 M254.943 154.137 C 253.538 155.558,252.304 156.720,252.201 156.720 C 252.098 156.720,251.590 157.132,251.072 157.636 L 250.130 158.551 250.130 170.945 L 250.130 183.339 250.960 184.169 C 251.417 184.626,251.790 185.082,251.790 185.183 C 251.790 185.283,251.941 185.366,252.126 185.366 C 252.310 185.366,253.576 186.487,254.938 187.857 L 257.414 190.348 268.917 190.348 C 279.046 190.348,280.452 190.309,280.687 190.026 C 280.834 189.850,281.076 189.593,281.224 189.456 C 281.372 189.318,281.606 189.085,281.743 188.937 C 281.880 188.788,282.114 188.555,282.262 188.418 C 282.410 188.280,282.644 188.048,282.781 187.902 C 283.889 186.720,284.228 186.404,284.382 186.404 C 284.480 186.404,284.617 186.222,284.688 185.999 C 284.758 185.777,285.019 185.530,285.267 185.452 C 285.515 185.373,286.118 184.897,286.606 184.395 L 287.494 183.482 287.494 170.947 L 287.494 158.413 286.877 157.826 C 286.023 157.013,285.664 156.720,285.518 156.720 C 285.449 156.720,284.231 155.553,282.811 154.126 L 280.229 151.531 268.864 151.543 L 257.499 151.555 254.943 154.137 M92.787 155.371 L 92.787 158.796 99.741 158.796 L 106.694 158.796 106.694 174.468 L 106.694 190.140 110.535 190.140 L 114.375 190.140 114.375 174.468 L 114.375 158.796 121.432 158.796 L 128.490 158.796 128.490 155.371 L 128.490 151.946 110.638 151.946 L 92.787 151.946 92.787 155.371 M134.094 167.628 L 134.094 183.310 135.097 184.313 C 135.649 184.864,136.303 185.380,136.550 185.459 C 136.798 185.537,137.001 185.681,137.001 185.779 C 137.001 185.933,137.317 186.272,138.499 187.380 C 138.645 187.517,138.877 187.751,139.014 187.899 C 139.152 188.047,139.385 188.280,139.533 188.418 C 139.682 188.555,139.915 188.788,140.052 188.937 C 140.190 189.085,140.423 189.318,140.571 189.456 C 140.719 189.593,140.961 189.850,141.108 190.026 C 141.514 190.514,162.585 190.514,162.991 190.026 C 163.139 189.850,163.380 189.593,163.528 189.456 C 163.677 189.318,163.910 189.085,164.047 188.937 C 164.185 188.788,164.418 188.555,164.566 188.418 C 164.714 188.280,164.948 188.048,165.085 187.902 C 166.193 186.720,166.532 186.404,166.686 186.404 C 166.784 186.404,166.921 186.222,166.992 185.999 C 167.063 185.777,167.323 185.530,167.571 185.452 C 167.819 185.373,168.422 184.897,168.910 184.395 L 169.798 183.482 169.798 167.714 L 169.798 151.946 165.957 151.946 L 162.117 151.946 162.117 166.163 L 162.117 180.379 160.858 181.627 C 160.165 182.313,159.504 182.875,159.390 182.875 C 159.275 182.875,159.041 183.015,158.870 183.186 C 158.607 183.450,157.559 183.498,152.050 183.498 C 146.541 183.498,145.493 183.450,145.229 183.186 C 145.058 183.015,144.824 182.875,144.710 182.875 C 144.595 182.875,143.935 182.313,143.242 181.627 L 141.982 180.379 141.982 166.163 L 141.982 151.946 138.038 151.946 L 134.094 151.946 134.094 167.628 M178.723 171.043 L 178.723 190.140 193.032 190.140 C 207.033 190.140,207.344 190.131,207.469 189.736 C 207.540 189.513,207.775 189.275,207.992 189.206 C 208.208 189.137,208.442 188.904,208.511 188.687 C 208.579 188.470,208.818 188.235,209.040 188.165 C 209.263 188.094,209.445 187.956,209.445 187.859 C 209.445 187.704,209.761 187.366,210.943 186.258 C 211.089 186.121,211.321 185.887,211.459 185.739 C 211.835 185.333,212.318 184.951,212.456 184.951 C 212.523 184.951,212.994 184.541,213.502 184.039 L 214.427 183.128 214.427 170.970 L 214.427 158.812 213.580 157.974 C 213.114 157.513,212.643 157.135,212.532 157.135 C 212.422 157.135,211.167 155.968,209.744 154.541 L 207.157 151.946 192.940 151.946 L 178.723 151.946 178.723 171.043 M220.861 155.371 L 220.861 158.796 224.598 158.796 L 228.334 158.796 228.334 171.043 L 228.334 183.290 224.598 183.290 L 220.861 183.290 220.861 186.715 L 220.861 190.140 232.278 190.140 L 243.695 190.140 243.695 186.715 L 243.695 183.290 239.958 183.290 L 236.222 183.290 236.222 171.043 L 236.222 158.796 239.958 158.796 L 243.695 158.796 243.695 155.371 L 243.695 151.946 232.278 151.946 L 220.861 151.946 220.861 155.371 M300.425 152.213 C 300.288 152.352,300.054 152.573,299.906 152.705 C 299.758 152.837,299.450 153.183,299.222 153.474 C 298.993 153.765,298.683 154.007,298.532 154.012 C 298.381 154.017,297.237 155.044,295.989 156.292 L 293.721 158.563 293.721 162.944 C 293.721 166.148,293.790 167.406,293.980 167.628 C 294.743 168.520,296.479 170.213,296.631 170.213 C 296.727 170.213,296.864 170.395,296.935 170.617 C 297.005 170.840,297.241 171.078,297.457 171.147 C 297.674 171.216,297.909 171.454,297.979 171.676 C 298.050 171.899,298.253 172.081,298.429 172.081 C 298.606 172.081,299.196 172.548,299.741 173.119 L 300.730 174.157 309.457 174.157 L 318.183 174.157 318.770 174.773 C 319.092 175.112,319.469 175.509,319.606 175.655 C 320.061 176.140,320.478 176.440,320.697 176.440 C 320.833 176.440,320.913 177.246,320.913 178.620 C 320.913 180.056,320.836 180.799,320.687 180.799 C 320.562 180.799,319.917 181.360,319.253 182.045 L 318.045 183.290 306.194 183.290 L 294.344 183.290 294.344 186.715 L 294.344 190.140 308.058 190.140 L 321.772 190.140 322.484 189.385 C 322.876 188.969,323.197 188.555,323.197 188.464 C 323.197 188.374,323.398 188.236,323.645 188.158 C 323.891 188.080,324.448 187.676,324.884 187.262 C 325.319 186.847,325.794 186.395,325.941 186.258 C 326.087 186.121,326.321 185.887,326.460 185.739 C 326.600 185.591,326.809 185.376,326.925 185.262 C 327.041 185.148,327.511 184.661,327.969 184.180 L 328.801 183.306 328.801 178.624 L 328.801 173.942 326.524 171.662 C 325.271 170.408,324.144 169.382,324.019 169.382 C 323.822 169.382,323.181 168.760,322.203 167.619 C 321.972 167.350,320.717 167.307,313.210 167.307 L 304.484 167.307 303.457 166.269 C 302.892 165.698,302.302 165.231,302.145 165.231 C 301.479 165.231,301.315 161.171,301.972 160.937 C 302.172 160.866,302.779 160.355,303.322 159.802 L 304.309 158.796 315.517 158.796 L 326.725 158.796 326.725 155.371 L 326.725 151.946 313.700 151.954 C 303.782 151.960,300.615 152.022,300.425 152.213 M276.404 158.640 C 276.575 158.783,276.844 159.017,277.003 159.159 C 277.162 159.302,277.352 159.419,277.425 159.419 C 277.497 159.419,278.065 159.935,278.685 160.565 L 279.813 161.711 279.813 171.020 L 279.813 180.329 278.672 181.498 C 278.044 182.141,277.451 182.667,277.354 182.667 C 277.257 182.667,276.963 182.854,276.700 183.083 C 276.061 183.636,261.420 183.742,261.209 183.194 C 261.145 183.027,260.897 182.829,260.657 182.752 C 260.418 182.676,259.726 182.110,259.120 181.494 L 258.018 180.375 258.018 171.022 L 258.018 161.670 258.588 161.070 C 258.902 160.740,259.272 160.350,259.409 160.204 C 259.827 159.758,260.275 159.419,260.448 159.417 C 260.538 159.415,260.799 159.186,261.028 158.907 L 261.443 158.400 268.768 158.391 C 274.337 158.383,276.169 158.443,276.404 158.640 M203.499 159.107 C 203.670 159.279,203.874 159.419,203.951 159.419 C 204.028 159.419,204.642 159.982,205.315 160.670 L 206.539 161.920 206.539 171.026 L 206.539 180.132 205.321 181.377 C 204.651 182.062,203.903 182.685,203.660 182.762 C 203.417 182.840,203.217 182.990,203.217 183.096 C 203.217 183.213,199.911 183.290,194.914 183.290 L 186.611 183.290 186.611 171.043 L 186.611 158.796 194.900 158.796 C 201.990 158.796,203.233 158.841,203.499 159.107 " stroke="none" fill="#3c3c3c" fill-rule="evenodd"></path><path id="path2" d="" stroke="none" fill="#20a8b8" fill-rule="evenodd"></path><path id="path3" d="" stroke="none" fill="#207464" fill-rule="evenodd"></path><path id="path4" d="" stroke="none" fill="#203c68" fill-rule="evenodd"></path></g></svg>