<svg id="svg" version="1.1" xmlns="http://www.w3.org/2000/svg" xmlns:xlink="http://www.w3.org/1999/xlink" width="400" height="127.67329392799572" viewBox="0, 0, 400,127.67329392799572"><g id="svgg"><path id="path0" d="M68.417 13.028 C 68.233 13.138,67.984 13.327,67.863 13.448 C 67.742 13.568,67.539 13.667,67.413 13.667 C 67.287 13.667,67.117 13.786,67.035 13.932 C 66.953 14.077,66.818 14.201,66.735 14.208 C 66.418 14.230,65.500 14.677,65.500 14.809 C 65.500 14.885,65.204 15.044,64.842 15.164 C 64.480 15.283,64.151 15.468,64.110 15.575 C 64.069 15.681,63.727 15.870,63.351 15.994 C 62.975 16.118,62.667 16.287,62.667 16.369 C 62.667 16.450,62.442 16.596,62.167 16.692 C 61.892 16.788,61.667 16.927,61.667 17.003 C 61.667 17.078,61.329 17.268,60.917 17.426 C 60.504 17.583,60.167 17.772,60.167 17.845 C 60.167 17.918,59.904 18.073,59.583 18.189 C 59.262 18.305,59.000 18.443,59.000 18.496 C 59.000 18.549,58.663 18.740,58.252 18.921 C 57.840 19.102,57.502 19.306,57.502 19.375 C 57.501 19.444,57.402 19.500,57.281 19.500 C 57.161 19.500,56.917 19.634,56.740 19.797 C 56.562 19.961,56.117 20.234,55.750 20.405 C 55.383 20.576,55.046 20.761,55.000 20.817 C 54.954 20.872,54.692 21.029,54.417 21.167 C 54.142 21.304,53.879 21.461,53.833 21.516 C 53.733 21.636,52.999 22.034,52.060 22.479 C 51.681 22.659,51.343 22.868,51.310 22.944 C 51.277 23.021,50.956 23.233,50.597 23.417 C 49.083 24.190,48.746 24.379,48.667 24.501 C 48.621 24.571,48.321 24.753,48.000 24.905 C 47.679 25.057,47.042 25.401,46.583 25.669 C 46.125 25.938,45.544 26.251,45.292 26.365 C 45.040 26.480,44.833 26.628,44.833 26.695 C 44.833 26.763,44.515 26.971,44.125 27.158 C 43.735 27.345,43.117 27.674,42.750 27.889 C 42.383 28.104,41.746 28.465,41.333 28.692 C 40.172 29.329,39.757 29.575,39.667 29.679 C 39.621 29.731,39.471 29.822,39.333 29.881 C 39.196 29.940,38.633 30.256,38.083 30.582 C 37.533 30.909,36.840 31.288,36.542 31.424 C 36.244 31.560,36.000 31.742,36.000 31.829 C 36.000 31.916,35.692 32.079,35.316 32.192 C 34.940 32.304,34.594 32.495,34.548 32.615 C 34.502 32.735,34.360 32.833,34.232 32.833 C 34.104 32.833,33.859 32.975,33.686 33.147 C 33.513 33.320,33.101 33.551,32.771 33.660 C 32.440 33.769,32.112 33.955,32.043 34.072 C 31.973 34.190,31.635 34.378,31.292 34.489 C 30.948 34.601,30.667 34.757,30.667 34.835 C 30.667 34.914,30.404 35.073,30.083 35.189 C 29.762 35.305,29.500 35.465,29.500 35.543 C 29.500 35.622,29.425 35.640,29.333 35.583 C 29.242 35.527,29.167 35.546,29.167 35.626 C 29.167 35.706,28.923 35.902,28.625 36.062 C 28.327 36.222,27.708 36.569,27.250 36.833 C 26.792 37.097,26.231 37.397,26.003 37.500 C 25.776 37.603,25.551 37.743,25.503 37.811 C 25.456 37.879,25.135 38.065,24.792 38.225 L 24.167 38.516 24.167 64.013 C 24.167 88.144,24.182 89.516,24.458 89.618 C 24.619 89.677,24.787 89.769,24.833 89.821 C 24.962 89.969,25.837 90.471,26.667 90.874 C 27.079 91.074,27.562 91.372,27.740 91.536 C 27.917 91.699,28.161 91.833,28.281 91.833 C 28.402 91.833,28.500 91.894,28.500 91.968 C 28.500 92.042,28.819 92.242,29.208 92.411 C 29.598 92.581,29.954 92.765,30.000 92.819 C 30.102 92.939,30.850 93.367,31.792 93.844 C 32.181 94.042,32.500 94.264,32.500 94.338 C 32.500 94.413,32.730 94.524,33.011 94.586 C 33.292 94.648,33.563 94.803,33.612 94.931 C 33.661 95.059,34.001 95.254,34.368 95.363 C 34.735 95.473,35.071 95.658,35.115 95.774 C 35.160 95.889,35.461 96.071,35.784 96.178 C 36.107 96.285,36.513 96.513,36.686 96.686 C 36.859 96.859,37.113 97.000,37.250 97.000 C 37.388 97.000,37.500 97.069,37.500 97.153 C 37.500 97.237,37.833 97.433,38.239 97.588 C 38.646 97.743,39.015 97.965,39.059 98.080 C 39.103 98.196,39.340 98.341,39.584 98.402 C 39.828 98.463,40.179 98.654,40.364 98.826 C 40.549 98.998,40.882 99.184,41.104 99.240 C 41.326 99.296,41.657 99.490,41.838 99.671 C 42.019 99.852,42.279 100.000,42.417 100.000 C 42.554 100.000,42.667 100.058,42.667 100.129 C 42.667 100.200,43.003 100.407,43.415 100.588 C 43.827 100.769,44.164 100.973,44.165 101.042 C 44.166 101.110,44.247 101.167,44.345 101.167 C 44.443 101.167,44.837 101.381,45.220 101.644 C 45.603 101.906,46.098 102.178,46.321 102.248 C 46.543 102.317,46.876 102.515,47.060 102.687 C 47.245 102.859,47.488 103.000,47.601 103.000 C 47.713 103.000,47.831 103.056,47.861 103.125 C 47.892 103.194,48.179 103.393,48.500 103.568 C 50.018 104.395,50.294 104.550,50.917 104.928 C 51.283 105.150,51.896 105.483,52.278 105.668 C 52.661 105.853,52.998 106.072,53.028 106.156 C 53.059 106.240,53.290 106.360,53.542 106.422 L 54.000 106.536 54.000 100.342 C 54.000 96.254,53.943 94.182,53.833 94.250 C 53.742 94.307,53.667 94.278,53.667 94.187 C 53.667 94.096,53.404 93.927,53.083 93.811 C 52.762 93.695,52.500 93.536,52.500 93.458 C 52.500 93.380,52.275 93.238,52.000 93.142 C 51.725 93.046,51.500 92.895,51.500 92.807 C 51.500 92.719,51.433 92.688,51.352 92.738 C 51.271 92.789,51.112 92.718,50.998 92.581 C 50.885 92.445,50.701 92.333,50.588 92.333 C 50.476 92.333,50.209 92.181,49.995 91.995 C 49.781 91.810,49.432 91.614,49.219 91.561 C 49.007 91.507,48.833 91.408,48.833 91.341 C 48.833 91.273,48.515 91.077,48.125 90.905 C 47.735 90.733,47.357 90.497,47.283 90.380 C 47.210 90.263,47.047 90.167,46.920 90.167 C 46.794 90.167,46.591 90.068,46.470 89.947 C 46.349 89.826,45.931 89.587,45.542 89.415 C 45.152 89.243,44.833 89.051,44.833 88.988 C 44.833 88.925,44.590 88.774,44.292 88.651 C 43.994 88.529,43.675 88.367,43.583 88.292 C 43.257 88.025,41.457 87.000,41.313 87.000 C 41.233 87.000,41.167 86.925,41.167 86.833 C 41.167 86.742,41.084 86.667,40.984 86.667 C 40.884 86.667,40.584 86.512,40.317 86.322 C 40.051 86.132,39.832 86.039,39.831 86.114 C 39.829 86.189,39.773 86.175,39.706 86.083 C 39.638 85.991,39.358 85.804,39.083 85.666 C 38.808 85.529,38.438 85.285,38.260 85.125 C 38.083 84.965,37.839 84.833,37.719 84.833 C 37.598 84.833,37.500 84.746,37.500 84.639 C 37.500 84.532,37.452 84.492,37.394 84.551 C 37.335 84.609,37.080 84.509,36.826 84.328 C 36.573 84.148,36.283 84.000,36.183 84.000 C 36.082 84.000,36.000 83.925,36.000 83.833 C 36.000 83.742,35.924 83.667,35.831 83.667 C 35.738 83.667,35.401 83.498,35.083 83.292 L 34.504 82.917 34.505 63.500 C 34.505 52.821,34.560 43.998,34.628 43.895 C 34.743 43.717,35.025 43.553,36.597 42.750 C 36.956 42.567,37.287 42.375,37.333 42.324 C 37.379 42.272,37.942 41.941,38.583 41.588 C 39.225 41.234,39.787 40.895,39.833 40.833 C 39.879 40.771,40.235 40.581,40.625 40.411 C 41.015 40.242,41.333 40.056,41.333 39.999 C 41.333 39.942,41.596 39.793,41.917 39.667 C 42.237 39.541,42.500 39.384,42.500 39.319 C 42.500 39.253,42.725 39.121,43.000 39.025 C 43.275 38.929,43.500 38.784,43.500 38.702 C 43.500 38.620,43.808 38.452,44.184 38.327 C 44.561 38.203,44.902 38.014,44.943 37.908 C 44.984 37.801,45.313 37.617,45.675 37.497 C 46.037 37.378,46.333 37.218,46.333 37.142 C 46.333 37.066,46.598 36.894,46.923 36.758 C 47.247 36.623,47.627 36.397,47.768 36.256 C 47.909 36.115,48.126 36.000,48.250 36.000 C 48.374 36.000,48.583 35.893,48.713 35.763 C 48.939 35.537,49.281 35.341,50.764 34.583 C 51.123 34.400,51.454 34.208,51.500 34.157 C 51.546 34.106,52.108 33.775,52.750 33.421 C 53.392 33.068,53.954 32.729,54.000 32.668 C 54.046 32.607,54.327 32.451,54.625 32.321 C 54.923 32.191,55.167 32.040,55.167 31.984 C 55.167 31.929,55.504 31.744,55.917 31.574 C 56.329 31.404,56.667 31.213,56.667 31.149 C 56.667 31.085,56.892 30.954,57.167 30.858 C 57.442 30.762,57.667 30.617,57.667 30.535 C 57.667 30.454,57.975 30.285,58.351 30.161 C 58.727 30.037,59.069 29.848,59.110 29.741 C 59.151 29.635,59.480 29.450,59.842 29.330 C 60.204 29.211,60.500 29.051,60.500 28.976 C 60.500 28.900,60.765 28.727,61.089 28.592 C 61.413 28.456,61.794 28.230,61.934 28.089 C 62.075 27.949,62.292 27.833,62.417 27.833 C 62.541 27.833,62.749 27.727,62.880 27.596 C 63.105 27.371,63.447 27.174,64.931 26.417 C 65.290 26.233,65.621 26.037,65.667 25.981 C 65.712 25.924,66.064 25.719,66.447 25.525 C 66.830 25.330,67.187 25.101,67.241 25.015 C 67.503 24.591,68.318 24.657,69.476 25.199 L 70.655 25.750 70.661 62.042 C 70.667 97.772,70.672 98.333,70.988 98.333 C 71.165 98.333,71.422 98.221,71.560 98.083 C 71.697 97.946,71.860 97.833,71.921 97.833 C 71.982 97.833,72.233 97.690,72.479 97.515 C 72.725 97.340,73.262 97.017,73.671 96.796 C 74.677 96.257,75.233 95.934,75.333 95.832 C 75.379 95.785,75.717 95.598,76.083 95.415 C 76.450 95.233,76.810 94.990,76.883 94.875 C 76.957 94.760,77.120 94.667,77.246 94.667 C 77.373 94.667,77.575 94.568,77.696 94.447 C 77.818 94.326,78.235 94.087,78.625 93.915 C 79.015 93.743,79.333 93.551,79.333 93.488 C 79.333 93.425,79.577 93.275,79.875 93.155 C 80.173 93.034,80.472 92.856,80.539 92.759 C 80.606 92.663,80.663 87.352,80.664 80.958 L 80.667 69.333 85.667 69.333 L 90.667 69.333 90.667 78.018 C 90.667 85.868,90.692 86.693,90.930 86.601 C 91.075 86.546,91.257 86.500,91.335 86.500 C 91.413 86.500,91.575 86.405,91.696 86.289 C 91.818 86.173,92.235 85.936,92.625 85.763 C 93.015 85.591,93.333 85.401,93.333 85.342 C 93.333 85.282,93.615 85.132,93.958 85.008 C 94.302 84.884,94.658 84.689,94.750 84.576 C 94.842 84.463,95.198 84.281,95.542 84.172 C 95.885 84.063,96.167 83.913,96.167 83.838 C 96.167 83.764,96.349 83.657,96.572 83.601 C 96.794 83.545,97.079 83.398,97.203 83.273 C 97.327 83.149,97.764 82.884,98.173 82.685 C 99.258 82.156,99.905 81.797,100.000 81.670 C 100.046 81.609,100.215 81.511,100.375 81.451 C 100.650 81.350,100.667 80.355,100.667 63.770 L 100.667 46.196 99.875 45.818 C 99.440 45.610,99.043 45.381,98.994 45.310 C 98.945 45.238,98.608 45.056,98.244 44.904 C 97.881 44.753,97.546 44.571,97.500 44.501 C 97.421 44.379,97.084 44.190,95.569 43.417 C 95.210 43.233,94.835 43.007,94.735 42.913 C 94.635 42.820,94.054 42.490,93.443 42.180 C 92.833 41.870,92.333 41.565,92.333 41.502 C 92.333 41.438,92.033 41.288,91.667 41.167 C 91.300 41.046,91.000 40.884,91.000 40.807 C 91.000 40.730,90.925 40.667,90.833 40.667 C 90.724 40.667,90.667 43.722,90.667 49.500 L 90.667 58.333 85.667 58.333 L 80.667 58.333 80.667 38.683 L 80.667 19.033 80.167 18.858 C 79.892 18.762,79.667 18.617,79.667 18.535 C 79.667 18.454,79.367 18.288,79.000 18.167 C 78.633 18.046,78.332 17.902,78.331 17.848 C 78.330 17.794,78.012 17.601,77.623 17.419 C 77.235 17.237,76.879 17.048,76.833 16.999 C 76.787 16.950,76.563 16.813,76.333 16.695 C 76.104 16.577,75.467 16.228,74.917 15.918 C 74.367 15.609,73.710 15.268,73.458 15.162 C 73.206 15.055,73.000 14.900,73.000 14.817 C 73.000 14.734,72.898 14.667,72.773 14.667 C 72.649 14.667,72.292 14.495,71.982 14.286 C 71.671 14.076,71.154 13.798,70.833 13.668 C 70.512 13.538,70.175 13.333,70.083 13.212 C 69.847 12.903,68.814 12.788,68.417 13.028 M83.667 27.231 L 83.667 33.338 84.417 33.702 C 84.829 33.902,85.167 34.121,85.167 34.187 C 85.167 34.253,85.386 34.355,85.655 34.414 C 85.924 34.473,86.234 34.630,86.345 34.764 C 86.455 34.897,86.817 35.132,87.148 35.286 C 87.479 35.440,87.787 35.615,87.833 35.674 C 87.917 35.783,88.326 36.011,89.625 36.675 C 90.015 36.874,90.333 37.097,90.333 37.172 C 90.333 37.246,90.558 37.356,90.832 37.416 C 91.107 37.477,91.388 37.622,91.457 37.739 C 91.527 37.856,91.883 38.090,92.250 38.259 C 92.617 38.428,92.954 38.615,93.000 38.674 C 93.046 38.733,93.280 38.887,93.520 39.016 C 94.977 39.797,95.426 40.058,95.500 40.167 C 95.546 40.234,95.752 40.341,95.957 40.405 C 96.163 40.469,96.426 40.617,96.542 40.732 C 96.768 40.959,97.339 41.288,98.445 41.830 C 98.827 42.017,99.165 42.226,99.195 42.294 C 99.225 42.361,99.544 42.567,99.903 42.750 C 101.386 43.507,101.728 43.704,101.954 43.930 C 102.084 44.060,102.279 44.169,102.387 44.172 C 102.495 44.175,102.752 44.319,102.958 44.491 L 103.333 44.803 103.333 64.198 C 103.333 82.479,103.317 83.605,103.042 83.803 C 102.629 84.099,102.029 84.438,101.208 84.837 C 100.819 85.027,100.500 85.242,100.500 85.314 C 100.500 85.387,100.192 85.548,99.816 85.673 C 99.439 85.797,99.098 85.986,99.057 86.092 C 99.016 86.199,98.687 86.383,98.325 86.503 C 97.963 86.622,97.667 86.787,97.667 86.869 C 97.667 86.950,97.442 87.096,97.167 87.192 C 96.892 87.288,96.667 87.427,96.667 87.503 C 96.667 87.578,96.329 87.768,95.917 87.926 C 95.504 88.083,95.167 88.272,95.167 88.345 C 95.167 88.418,94.904 88.573,94.583 88.689 C 94.263 88.805,94.000 88.953,94.000 89.017 C 94.000 89.081,93.663 89.272,93.251 89.442 C 92.838 89.611,92.501 89.797,92.501 89.855 C 92.500 89.912,92.275 90.053,92.000 90.167 C 91.725 90.281,91.500 90.424,91.500 90.486 C 91.500 90.548,91.162 90.738,90.750 90.908 C 90.337 91.078,90.000 91.262,90.000 91.318 C 90.000 91.373,89.756 91.525,89.458 91.654 C 89.160 91.784,88.879 91.941,88.833 92.003 C 88.741 92.128,88.109 92.480,87.042 93.002 C 86.652 93.193,86.333 93.408,86.333 93.481 C 86.333 93.554,86.030 93.714,85.659 93.836 C 85.287 93.959,84.931 94.144,84.867 94.247 C 84.803 94.351,84.506 94.535,84.208 94.655 C 83.910 94.775,83.667 94.934,83.667 95.007 C 83.667 95.081,83.404 95.227,83.083 95.333 C 82.762 95.439,82.500 95.589,82.500 95.666 C 82.500 95.743,82.162 95.935,81.750 96.092 C 81.337 96.250,81.000 96.434,81.000 96.502 C 81.000 96.571,80.756 96.725,80.458 96.845 C 80.160 96.966,79.879 97.115,79.833 97.176 C 79.759 97.276,79.282 97.551,77.853 98.317 C 77.613 98.446,77.379 98.602,77.333 98.664 C 77.287 98.726,77.006 98.883,76.708 99.012 C 76.410 99.142,76.167 99.309,76.167 99.384 C 76.167 99.459,76.092 99.473,76.000 99.417 C 75.908 99.360,75.833 99.379,75.833 99.459 C 75.833 99.539,75.571 99.707,75.250 99.833 C 74.929 99.959,74.667 100.116,74.667 100.181 C 74.667 100.247,74.442 100.379,74.167 100.475 C 73.892 100.571,73.667 100.736,73.667 100.842 C 73.667 100.949,73.554 100.992,73.417 100.940 C 73.279 100.887,73.167 100.907,73.167 100.985 C 73.167 101.063,72.942 101.219,72.667 101.333 C 72.392 101.447,72.167 101.591,72.167 101.653 C 72.167 101.716,71.904 101.861,71.583 101.977 C 71.262 102.093,71.000 102.263,71.000 102.354 C 71.000 102.445,70.925 102.473,70.833 102.417 C 70.742 102.360,70.667 102.378,70.667 102.457 C 70.667 102.869,69.531 103.012,68.931 102.675 C 68.602 102.490,68.333 102.381,68.333 102.431 C 68.333 102.482,68.215 102.406,68.071 102.262 C 67.927 102.118,67.702 102.000,67.571 102.000 C 67.366 102.000,67.333 97.033,67.333 65.583 C 67.333 42.615,67.275 29.167,67.175 29.167 C 66.927 29.167,66.167 29.541,66.167 29.662 C 66.167 29.722,65.904 29.874,65.583 30.000 C 65.262 30.126,65.000 30.282,65.000 30.348 C 65.000 30.413,64.663 30.606,64.251 30.775 C 63.838 30.945,63.501 31.130,63.501 31.188 C 63.500 31.246,63.275 31.386,63.000 31.500 C 62.725 31.614,62.500 31.758,62.500 31.819 C 62.500 31.881,62.163 32.071,61.750 32.241 C 61.337 32.411,61.000 32.600,61.000 32.661 C 61.000 32.721,60.737 32.874,60.417 33.000 C 60.096 33.126,59.833 33.278,59.833 33.339 C 59.833 33.400,59.515 33.591,59.125 33.763 C 58.735 33.936,58.318 34.173,58.196 34.289 C 58.075 34.405,57.918 34.500,57.847 34.500 C 57.776 34.500,57.556 34.640,57.359 34.811 L 57.000 35.122 57.000 46.728 L 57.000 58.333 52.083 58.333 L 47.167 58.333 47.167 49.667 C 47.167 40.201,47.229 40.759,46.216 41.205 C 45.960 41.318,45.712 41.449,45.667 41.497 C 45.621 41.544,45.283 41.733,44.917 41.915 C 44.550 42.098,44.212 42.285,44.167 42.332 C 44.121 42.378,43.821 42.548,43.500 42.708 C 42.423 43.245,40.418 44.373,40.333 44.488 C 40.287 44.551,39.987 44.703,39.667 44.827 C 39.346 44.950,39.008 45.137,38.917 45.242 C 38.825 45.347,38.487 45.539,38.167 45.669 C 36.910 46.179,37.012 44.574,37.006 63.947 C 37.000 81.167,37.003 81.312,37.333 81.417 C 37.517 81.475,37.667 81.588,37.667 81.667 C 37.667 81.747,37.929 81.907,38.250 82.023 C 38.571 82.139,38.833 82.282,38.833 82.342 C 38.833 82.401,39.152 82.591,39.542 82.763 C 39.931 82.936,40.349 83.173,40.470 83.289 C 40.591 83.405,40.755 83.500,40.833 83.500 C 40.912 83.500,41.075 83.595,41.196 83.711 C 41.318 83.827,41.735 84.064,42.125 84.237 C 42.515 84.409,42.833 84.599,42.833 84.658 C 42.833 84.718,43.096 84.861,43.417 84.977 C 43.737 85.093,44.000 85.253,44.000 85.331 C 44.000 85.410,44.281 85.565,44.625 85.676 C 44.969 85.787,45.378 86.011,45.534 86.174 C 45.691 86.337,46.047 86.520,46.326 86.582 C 46.605 86.643,46.833 86.762,46.833 86.847 C 46.833 86.931,46.908 87.000,47.000 87.000 C 47.109 87.000,47.167 83.944,47.167 78.167 L 47.167 69.333 52.083 69.333 L 57.000 69.333 57.000 88.899 L 57.000 108.464 57.667 108.731 C 58.033 108.877,58.333 109.061,58.333 109.139 C 58.333 109.216,58.629 109.378,58.991 109.497 C 59.353 109.617,59.683 109.801,59.724 109.908 C 59.764 110.014,60.106 110.203,60.482 110.327 C 60.859 110.452,61.167 110.601,61.167 110.659 C 61.167 110.717,61.673 111.022,62.292 111.337 C 62.910 111.652,63.510 111.998,63.623 112.108 C 63.737 112.217,64.093 112.393,64.415 112.499 C 64.737 112.606,65.000 112.748,65.000 112.815 C 65.000 112.883,65.262 113.041,65.583 113.167 C 65.904 113.293,66.167 113.445,66.167 113.506 C 66.167 113.567,66.504 113.756,66.917 113.926 C 67.329 114.096,67.667 114.287,67.667 114.351 C 67.667 114.802,69.348 114.805,69.663 114.355 C 69.711 114.287,70.087 114.069,70.500 113.871 C 71.330 113.471,72.205 112.970,72.333 112.819 C 72.379 112.765,72.942 112.432,73.583 112.079 C 74.225 111.725,74.787 111.390,74.833 111.334 C 74.879 111.277,75.160 111.132,75.458 111.012 C 75.756 110.891,76.000 110.737,76.000 110.669 C 76.000 110.601,76.337 110.416,76.750 110.259 C 77.162 110.101,77.500 109.911,77.500 109.836 C 77.500 109.761,77.725 109.621,78.000 109.525 C 78.275 109.429,78.500 109.284,78.500 109.202 C 78.500 109.120,78.804 108.962,79.175 108.850 C 79.547 108.739,79.888 108.550,79.934 108.431 C 79.980 108.312,80.313 108.117,80.675 107.997 C 81.037 107.878,81.333 107.716,81.333 107.639 C 81.333 107.561,81.633 107.377,82.000 107.231 C 82.367 107.084,82.667 106.908,82.667 106.841 C 82.667 106.773,82.948 106.592,83.292 106.440 C 83.635 106.287,84.292 105.936,84.750 105.659 C 85.208 105.382,85.790 105.066,86.042 104.958 C 86.294 104.849,86.500 104.702,86.500 104.630 C 86.500 104.559,86.576 104.500,86.670 104.500 C 86.763 104.500,87.157 104.297,87.545 104.049 C 87.933 103.801,88.475 103.479,88.750 103.333 C 89.473 102.949,90.071 102.596,90.167 102.497 C 90.212 102.450,90.568 102.263,90.956 102.081 C 91.345 101.899,91.664 101.694,91.665 101.625 C 91.666 101.556,91.779 101.500,91.917 101.500 C 92.054 101.500,92.309 101.357,92.484 101.183 C 92.658 101.009,92.977 100.811,93.192 100.745 C 93.407 100.678,93.780 100.485,94.020 100.316 C 94.260 100.147,94.654 99.933,94.895 99.842 C 95.136 99.750,95.333 99.610,95.333 99.531 C 95.333 99.452,95.641 99.285,96.018 99.161 C 96.394 99.037,96.740 98.837,96.786 98.717 C 96.831 98.598,96.973 98.500,97.101 98.500 C 97.229 98.500,97.475 98.359,97.647 98.186 C 97.820 98.013,98.232 97.783,98.563 97.673 C 98.893 97.564,99.221 97.379,99.290 97.261 C 99.360 97.143,99.691 96.958,100.027 96.849 C 100.363 96.740,100.676 96.549,100.724 96.424 C 100.772 96.300,101.041 96.148,101.322 96.086 C 101.603 96.024,101.833 95.919,101.833 95.853 C 101.833 95.787,102.183 95.549,102.611 95.325 C 103.971 94.610,104.248 94.451,104.333 94.334 C 104.379 94.272,104.735 94.081,105.125 93.911 C 105.515 93.742,105.833 93.556,105.833 93.499 C 105.833 93.442,106.096 93.293,106.417 93.167 C 106.737 93.041,107.000 92.885,107.000 92.821 C 107.000 92.756,107.319 92.547,107.708 92.357 C 108.474 91.982,109.366 91.470,109.500 91.329 C 109.546 91.280,109.902 91.100,110.292 90.928 C 110.681 90.757,111.000 90.561,111.000 90.493 C 111.000 90.425,111.182 90.324,111.405 90.268 C 111.628 90.212,111.909 90.069,112.030 89.951 C 112.151 89.833,112.550 89.582,112.917 89.393 L 113.583 89.051 113.626 63.620 C 113.668 38.304,113.666 38.189,113.334 38.084 C 113.150 38.025,113.000 37.916,113.000 37.840 C 113.000 37.765,112.700 37.583,112.333 37.436 C 111.967 37.289,111.667 37.106,111.667 37.028 C 111.667 36.950,111.367 36.788,111.000 36.667 C 110.633 36.546,110.333 36.380,110.333 36.298 C 110.333 36.216,110.108 36.071,109.833 35.975 C 109.558 35.879,109.333 35.748,109.333 35.685 C 109.333 35.621,108.996 35.429,108.583 35.259 C 108.171 35.089,107.833 34.891,107.833 34.819 C 107.833 34.747,107.571 34.593,107.250 34.477 C 106.929 34.361,106.667 34.214,106.667 34.150 C 106.667 34.086,106.329 33.894,105.917 33.725 C 105.505 33.555,105.168 33.370,105.167 33.312 C 105.167 33.254,104.942 33.114,104.667 33.000 C 104.392 32.886,104.167 32.742,104.167 32.681 C 104.167 32.619,103.829 32.429,103.417 32.259 C 103.004 32.089,102.667 31.900,102.667 31.839 C 102.667 31.779,102.404 31.626,102.083 31.500 C 101.763 31.374,101.500 31.225,101.500 31.168 C 101.500 31.111,101.181 30.924,100.792 30.752 C 100.402 30.580,99.984 30.341,99.863 30.220 C 99.742 30.099,99.539 30.000,99.413 30.000 C 99.287 30.000,99.123 29.904,99.050 29.787 C 98.977 29.670,98.598 29.433,98.208 29.262 C 97.819 29.090,97.500 28.901,97.500 28.842 C 97.500 28.782,97.237 28.639,96.917 28.523 C 96.596 28.407,96.333 28.247,96.333 28.169 C 96.333 28.090,96.071 27.939,95.750 27.833 C 95.429 27.727,95.167 27.580,95.167 27.505 C 95.167 27.431,94.867 27.249,94.500 27.103 C 94.133 26.956,93.833 26.772,93.833 26.695 C 93.833 26.617,93.537 26.456,93.175 26.336 C 92.813 26.217,92.484 26.032,92.443 25.925 C 92.402 25.819,92.061 25.630,91.684 25.506 C 91.308 25.382,91.000 25.213,91.000 25.131 C 91.000 25.050,90.775 24.904,90.500 24.808 C 90.225 24.712,90.000 24.582,90.000 24.518 C 90.000 24.454,89.662 24.262,89.250 24.092 C 88.837 23.922,88.500 23.729,88.500 23.662 C 88.500 23.595,88.256 23.442,87.958 23.321 C 87.660 23.201,87.379 23.054,87.333 22.995 C 87.287 22.936,86.725 22.599,86.083 22.245 C 85.442 21.892,84.875 21.543,84.825 21.471 C 84.775 21.398,84.493 21.290,84.200 21.232 L 83.667 21.125 83.667 27.231 M246.337 39.699 C 245.651 39.785,245.051 39.914,245.003 39.986 C 244.956 40.059,244.520 40.212,244.035 40.327 C 243.551 40.442,243.063 40.622,242.952 40.726 C 242.841 40.831,242.525 41.029,242.250 41.166 C 241.975 41.304,241.690 41.510,241.617 41.625 C 241.543 41.739,241.404 41.833,241.307 41.833 C 241.086 41.833,239.333 43.601,239.333 43.824 C 239.333 43.914,239.197 44.061,239.030 44.151 C 238.863 44.240,238.626 44.617,238.503 44.990 C 238.381 45.362,238.227 45.667,238.162 45.667 C 238.097 45.667,237.947 46.023,237.829 46.458 C 237.711 46.894,237.559 47.325,237.492 47.417 C 236.767 48.395,236.761 81.021,237.486 81.496 C 237.559 81.544,237.712 81.977,237.826 82.458 C 237.940 82.940,238.095 83.333,238.170 83.333 C 238.246 83.333,238.394 83.596,238.500 83.917 C 238.606 84.237,238.774 84.500,238.874 84.500 C 238.974 84.500,239.012 84.544,238.958 84.597 C 238.905 84.651,238.973 84.819,239.110 84.972 C 240.448 86.466,241.168 87.144,241.625 87.344 C 241.923 87.475,242.167 87.642,242.167 87.716 C 242.167 87.790,242.392 87.929,242.667 88.025 C 242.942 88.121,243.167 88.259,243.167 88.333 C 243.167 88.407,243.560 88.560,244.042 88.674 C 244.523 88.788,244.957 88.943,245.006 89.018 C 245.348 89.539,252.490 89.543,252.823 89.022 C 252.874 88.941,253.168 88.821,253.476 88.754 C 254.140 88.610,255.617 87.874,256.073 87.460 C 256.251 87.299,256.449 87.167,256.513 87.167 C 256.722 87.167,258.651 85.146,258.755 84.818 C 258.810 84.643,258.918 84.500,258.995 84.500 C 259.071 84.500,259.220 84.294,259.324 84.042 C 259.429 83.790,259.655 83.321,259.828 83.000 C 260.001 82.679,260.194 82.117,260.257 81.750 C 260.320 81.383,260.456 80.978,260.561 80.849 C 260.849 80.494,260.830 48.138,260.542 48.042 C 260.427 48.003,260.333 47.831,260.333 47.659 C 260.333 47.220,259.842 45.801,259.586 45.500 C 259.469 45.362,259.319 45.074,259.253 44.859 C 259.117 44.411,259.013 44.284,257.660 42.917 C 256.354 41.596,256.072 41.358,255.535 41.120 C 255.287 41.010,254.992 40.834,254.881 40.728 C 254.770 40.623,254.283 40.442,253.798 40.327 C 253.313 40.212,252.876 40.057,252.827 39.982 C 252.571 39.591,248.585 39.418,246.337 39.699 M307.542 39.707 C 306.785 39.795,306.167 39.934,306.167 40.017 C 306.167 40.099,306.063 40.167,305.936 40.167 C 305.558 40.167,304.000 40.707,304.000 40.838 C 304.000 40.905,303.780 41.051,303.512 41.162 C 303.244 41.273,302.983 41.469,302.934 41.599 C 302.884 41.728,302.738 41.833,302.608 41.833 C 302.334 41.833,300.667 43.469,300.667 43.738 C 300.667 43.838,300.517 44.013,300.333 44.128 C 300.150 44.242,300.000 44.448,300.000 44.585 C 300.000 44.721,299.931 44.833,299.846 44.833 C 299.762 44.833,299.602 45.115,299.492 45.458 C 299.382 45.802,299.156 46.386,298.991 46.755 C 298.826 47.125,298.638 47.895,298.574 48.467 C 298.509 49.039,298.391 49.548,298.311 49.597 C 298.101 49.727,298.123 79.167,298.333 79.167 C 298.425 79.167,298.500 79.425,298.500 79.742 C 298.500 80.401,298.825 82.042,298.980 82.167 C 299.037 82.212,299.221 82.654,299.390 83.148 C 299.691 84.031,299.790 84.201,300.375 84.845 C 300.535 85.022,300.667 85.223,300.668 85.292 C 300.669 85.462,302.434 87.167,302.610 87.167 C 302.687 87.167,302.970 87.357,303.240 87.588 C 303.509 87.820,303.903 88.053,304.115 88.106 C 304.327 88.159,304.500 88.267,304.500 88.345 C 304.500 88.423,304.819 88.567,305.208 88.664 C 305.598 88.761,306.042 88.911,306.196 88.997 C 307.156 89.535,313.371 89.560,314.063 89.028 C 314.166 88.950,314.606 88.789,315.042 88.671 C 315.477 88.553,315.833 88.406,315.833 88.345 C 315.833 88.284,316.115 88.132,316.458 88.009 C 316.802 87.885,317.181 87.645,317.301 87.475 C 317.421 87.305,317.601 87.167,317.702 87.167 C 318.016 87.167,320.089 84.924,320.333 84.322 C 320.460 84.007,320.662 83.690,320.782 83.617 C 320.902 83.543,321.000 83.377,321.000 83.247 C 321.000 83.117,321.150 82.723,321.332 82.373 C 321.515 82.022,321.714 81.267,321.773 80.696 C 321.833 80.124,321.945 79.617,322.022 79.569 C 322.228 79.442,322.204 49.333,321.998 49.333 C 321.908 49.333,321.833 49.112,321.833 48.842 C 321.833 48.065,321.481 46.624,321.229 46.372 C 321.103 46.246,321.000 46.010,321.000 45.847 C 321.000 45.684,320.850 45.378,320.667 45.167 C 320.483 44.955,320.333 44.684,320.333 44.563 C 320.333 44.273,318.006 41.833,317.729 41.833 C 317.609 41.833,317.431 41.683,317.333 41.500 C 317.235 41.317,317.050 41.167,316.923 41.167 C 316.795 41.167,316.585 41.061,316.457 40.933 C 316.213 40.690,314.826 40.167,314.425 40.167 C 314.298 40.167,314.169 40.093,314.139 40.003 C 314.002 39.599,310.007 39.419,307.542 39.707 M363.670 39.699 C 362.984 39.785,362.384 39.914,362.337 39.986 C 362.289 40.059,361.853 40.212,361.369 40.327 C 360.884 40.442,360.397 40.622,360.285 40.726 C 360.174 40.831,359.861 41.029,359.588 41.167 C 359.006 41.461,358.885 41.558,357.625 42.739 C 357.098 43.233,356.667 43.708,356.667 43.793 C 356.667 43.878,356.524 44.078,356.349 44.236 C 356.174 44.395,355.934 44.762,355.816 45.054 C 355.699 45.345,355.550 45.621,355.486 45.667 C 355.323 45.784,354.833 47.483,354.833 47.933 C 354.833 48.138,354.740 48.337,354.625 48.375 C 354.351 48.466,354.316 80.443,354.590 80.631 C 354.686 80.696,354.898 81.331,355.063 82.042 C 355.227 82.752,355.425 83.333,355.501 83.333 C 355.578 83.333,355.727 83.596,355.833 83.917 C 355.939 84.237,356.079 84.500,356.144 84.500 C 356.208 84.500,356.392 84.721,356.551 84.991 C 356.946 85.659,358.233 86.926,358.884 87.288 C 359.177 87.450,359.457 87.637,359.506 87.703 C 359.682 87.936,361.120 88.630,361.681 88.752 C 361.994 88.820,362.290 88.938,362.339 89.015 C 362.673 89.536,369.816 89.546,370.156 89.026 C 370.208 88.947,370.644 88.788,371.125 88.674 C 371.606 88.560,372.000 88.405,372.000 88.330 C 372.000 88.254,372.262 88.106,372.583 88.000 C 372.904 87.894,373.167 87.751,373.167 87.682 C 373.167 87.613,373.371 87.450,373.620 87.320 C 374.209 87.013,375.950 85.253,376.085 84.829 C 376.142 84.648,376.252 84.500,376.328 84.500 C 376.405 84.500,376.546 84.275,376.642 84.000 C 376.738 83.725,376.879 83.500,376.955 83.500 C 377.031 83.500,377.196 83.144,377.321 82.708 C 377.446 82.273,377.605 81.842,377.674 81.750 C 378.390 80.795,378.409 48.228,377.693 47.263 C 377.620 47.164,377.456 46.746,377.329 46.333 C 377.202 45.921,377.009 45.528,376.901 45.460 C 376.792 45.393,376.656 45.147,376.598 44.915 C 376.482 44.453,376.443 44.402,375.018 42.875 C 374.484 42.302,373.959 41.833,373.851 41.833 C 373.744 41.833,373.616 41.728,373.566 41.599 C 373.517 41.469,373.238 41.266,372.946 41.147 C 372.655 41.028,372.326 40.842,372.215 40.733 C 372.103 40.625,371.616 40.442,371.131 40.327 C 370.647 40.212,370.210 40.057,370.160 39.982 C 369.905 39.591,365.918 39.418,363.670 39.699 M127.500 64.500 L 127.500 88.667 131.417 88.667 L 135.333 88.667 135.333 78.250 L 135.333 67.833 139.417 67.833 L 143.500 67.833 143.500 78.250 L 143.500 88.667 147.333 88.667 L 151.167 88.667 151.167 64.500 L 151.167 40.333 147.333 40.333 L 143.500 40.333 143.500 50.417 L 143.500 60.500 139.417 60.500 L 135.333 60.500 135.333 50.417 L 135.333 40.333 131.417 40.333 L 127.500 40.333 127.500 64.500 M159.000 64.500 L 159.000 88.667 169.500 88.667 L 180.000 88.667 180.000 85.083 L 180.000 81.500 173.333 81.500 L 166.667 81.500 166.667 74.667 L 166.667 67.833 172.083 67.833 L 177.500 67.833 177.500 64.167 L 177.500 60.500 172.083 60.500 L 166.667 60.500 166.667 53.917 L 166.667 47.333 173.333 47.333 L 180.000 47.333 180.000 43.833 L 180.000 40.333 169.500 40.333 L 159.000 40.333 159.000 64.500 M185.667 64.500 L 185.667 88.667 195.917 88.667 L 206.167 88.667 206.167 85.083 L 206.167 81.500 199.750 81.500 L 193.333 81.500 193.333 60.917 L 193.333 40.333 189.500 40.333 L 185.667 40.333 185.667 64.500 M211.667 64.500 L 211.667 88.667 221.917 88.667 L 232.167 88.667 232.167 85.083 L 232.167 81.500 225.750 81.500 L 219.333 81.500 219.333 60.917 L 219.333 40.333 215.500 40.333 L 211.667 40.333 211.667 64.500 M267.667 64.500 L 267.667 88.667 271.583 88.667 L 275.500 88.667 275.500 78.250 L 275.500 67.833 279.583 67.833 L 283.667 67.833 283.667 78.250 L 283.667 88.667 287.500 88.667 L 291.333 88.667 291.333 64.500 L 291.333 40.333 287.500 40.333 L 283.667 40.333 283.667 50.417 L 283.667 60.500 279.583 60.500 L 275.500 60.500 275.500 50.417 L 275.500 40.333 271.583 40.333 L 267.667 40.333 267.667 64.500 M329.000 64.500 L 329.000 88.667 339.333 88.667 L 349.667 88.667 349.667 85.083 L 349.667 81.500 343.167 81.500 L 336.667 81.500 336.667 60.917 L 336.667 40.333 332.833 40.333 L 329.000 40.333 329.000 64.500 M249.500 46.814 C 249.500 46.896,249.846 47.014,250.269 47.078 C 251.300 47.232,252.610 48.504,252.770 49.506 C 252.828 49.869,252.941 50.167,253.021 50.167 C 253.103 50.167,253.167 56.456,253.167 64.500 C 253.167 73.944,253.110 78.833,253.000 78.833 C 252.908 78.833,252.833 78.980,252.833 79.159 C 252.833 79.860,252.229 80.725,251.123 81.608 C 250.335 82.237,247.012 82.206,246.767 81.567 C 246.717 81.438,246.573 81.333,246.446 81.333 C 246.089 81.333,245.344 80.333,245.146 79.587 C 245.049 79.218,244.901 78.786,244.818 78.627 C 244.603 78.215,244.618 50.333,244.833 50.333 C 244.925 50.333,244.987 50.277,244.972 50.208 C 244.736 49.158,246.315 47.265,247.586 47.074 C 247.997 47.013,248.333 46.896,248.333 46.814 C 248.333 46.733,248.596 46.667,248.917 46.667 C 249.237 46.667,249.500 46.733,249.500 46.814 M310.667 46.799 C 310.667 46.872,311.074 47.017,311.571 47.121 C 312.447 47.305,312.768 47.535,313.708 48.655 C 314.289 49.348,314.325 50.278,314.325 64.500 C 314.325 77.921,314.266 79.828,313.842 79.969 C 313.746 80.001,313.667 80.125,313.667 80.244 C 313.667 80.524,312.670 81.500,312.385 81.500 C 312.265 81.500,312.167 81.567,312.167 81.648 C 312.167 82.147,308.511 82.189,308.175 81.694 C 308.125 81.619,307.839 81.416,307.541 81.243 C 307.243 81.070,306.957 80.795,306.906 80.632 C 306.854 80.469,306.703 80.227,306.570 80.094 C 306.056 79.580,306.000 78.033,306.000 64.402 C 306.000 50.380,306.043 49.326,306.643 48.661 C 306.793 48.494,307.001 48.258,307.105 48.137 C 307.694 47.446,308.540 47.000,309.261 47.000 C 309.484 47.000,309.667 46.925,309.667 46.833 C 309.667 46.742,309.892 46.667,310.167 46.667 C 310.442 46.667,310.667 46.726,310.667 46.799 M366.833 46.814 C 366.833 46.896,367.179 47.014,367.602 47.077 C 368.669 47.237,369.935 48.449,370.097 49.466 C 370.159 49.852,370.275 50.167,370.355 50.167 C 370.436 50.167,370.500 56.456,370.500 64.500 C 370.500 73.944,370.443 78.833,370.333 78.833 C 370.242 78.833,370.167 78.980,370.167 79.159 C 370.167 79.886,369.622 80.665,368.454 81.608 C 367.675 82.237,364.345 82.206,364.100 81.567 C 364.051 81.438,363.902 81.333,363.770 81.333 C 363.403 81.333,362.504 80.003,362.391 79.291 C 362.335 78.944,362.224 78.619,362.145 78.570 C 361.954 78.452,361.955 50.333,362.145 50.333 C 362.225 50.333,362.340 50.026,362.400 49.651 C 362.512 48.949,363.391 47.667,363.760 47.667 C 363.872 47.667,364.005 47.559,364.056 47.428 C 364.106 47.297,364.489 47.139,364.907 47.076 C 365.325 47.013,365.667 46.896,365.667 46.814 C 365.667 46.733,365.929 46.667,366.250 46.667 C 366.571 46.667,366.833 46.733,366.833 46.814 " stroke="none" fill="#4c94cc" fill-rule="evenodd"></path><path id="path1" d="" stroke="none" fill="#5094cc" fill-rule="evenodd"></path><path id="path2" d="" stroke="none" fill="#5094cc" fill-rule="evenodd"></path><path id="path3" d="" stroke="none" fill="#5094cc" fill-rule="evenodd"></path><path id="path4" d="" stroke="none" fill="#5094cc" fill-rule="evenodd"></path></g></svg>